<svg width="64" height="65" viewBox="0 0 64 65" fill="none" xmlns="http://www.w3.org/2000/svg">
<path d="M55.6426 28.6843C54.8352 24.0649 52.6922 19.7831 49.4782 16.3681C46.2643 12.9532 42.1203 10.5546 37.5583 9.46868C32.9962 8.38281 28.216 8.65724 23.8082 10.2581C19.4004 11.8589 15.5581 14.716 12.7562 18.4764C9.95417 22.2367 8.31523 26.7356 8.04181 31.4171C7.7684 36.0986 8.87249 40.7577 11.2177 44.8187C13.5629 48.8796 17.0464 52.1646 21.2379 54.2677C25.4294 56.3707 30.1452 57.1998 34.8026 56.6523M32 19.4843V32.8177L36 36.8177M56 40.8177H49.3333C48.2725 40.8177 47.2551 41.2391 46.5049 41.9892C45.7548 42.7394 45.3333 43.7568 45.3333 44.8177C45.3333 45.8785 45.7548 46.8959 46.5049 47.6461C47.2551 48.3962 48.2725 48.8177 49.3333 48.8177H52C53.0609 48.8177 54.0783 49.2391 54.8284 49.9892C55.5786 50.7394 56 51.7568 56 52.8177C56 53.8785 55.5786 54.8959 54.8284 55.6461C54.0783 56.3962 53.0609 56.8177 52 56.8177H45.3333M50.6667 56.8177V59.4843M50.6667 38.151V40.8177" stroke="#F8F3EF" stroke-width="3" stroke-linecap="round" stroke-linejoin="round"/>
</svg>
