<svg width="64" height="65" viewBox="0 0 64 65" fill="none" xmlns="http://www.w3.org/2000/svg">
<path d="M8 38.1497C10.2133 39.8617 13.5387 40.8617 17.3333 40.8164C21.128 40.8617 24.4533 39.8617 26.6667 38.1497C28.88 36.4377 32.2053 35.4377 36 35.4831C39.7947 35.4377 43.12 36.4377 45.3333 38.1497M21.3333 8.81641C20.4893 9.42219 19.8055 10.2243 19.3409 11.1535C18.8763 12.0827 18.6448 13.1111 18.6666 14.1497C18.6448 15.1884 18.8763 16.2167 19.3409 17.1459C19.8055 18.0751 20.4893 18.8773 21.3333 19.4831M31.9999 8.81641C31.156 9.42219 30.4721 10.2243 30.0075 11.1535C29.5429 12.0827 29.3115 13.1111 29.3333 14.1497C29.3115 15.1884 29.5429 16.2167 30.0075 17.1459C30.4721 18.0751 31.156 18.8773 31.9999 19.4831M44.6559 45.4191C45.8468 45.9658 47.1538 46.2116 48.462 46.1348C49.7702 46.0581 51.0395 45.6612 52.1583 44.979C53.2772 44.2968 54.2113 43.3502 54.8786 42.2224C55.5459 41.0946 55.926 39.8202 55.9853 38.5111C56.0447 37.202 55.7816 35.8984 55.2192 34.7148C54.6567 33.5313 53.8121 32.504 52.7597 31.7233C51.7072 30.9426 50.479 30.4324 49.1832 30.2375C47.8873 30.0427 46.5635 30.1691 45.3279 30.6057M8 27.4831H45.3333V40.8164C45.3333 45.0599 43.6476 49.1295 40.647 52.1301C37.6465 55.1307 33.5768 56.8164 29.3333 56.8164H24C19.7565 56.8164 15.6869 55.1307 12.6863 52.1301C9.68571 49.1295 8 45.0599 8 40.8164V27.4831Z" stroke="#F8F3EF" stroke-width="3" stroke-linecap="round" stroke-linejoin="round"/>
</svg>
