<svg width="64" height="65" viewBox="0 0 64 65" fill="none" xmlns="http://www.w3.org/2000/svg">
<path d="M29.7814 30.5604C27.888 31.3871 26.624 33.5124 24.448 37.4751C21.936 42.0164 16.8587 42.3951 15.592 46.2511C15.3334 46.9577 15.2054 48.0564 15.2107 48.8164C15.2107 51.9524 17.3094 54.1497 20.0107 54.1497C23.368 54.1497 28.0107 51.4831 32.0107 51.4831C36.0107 51.4831 40.6534 54.1497 44.0107 54.1497C46.4827 54.1497 48.448 52.3124 48.7654 49.5951M29.3333 19.4617C29.3628 18.8153 29.3271 18.1676 29.2266 17.5284C28.6853 14.0697 26.4346 11.4831 24.0746 11.4831C23.341 11.4873 22.6298 11.736 22.0533 12.1897M8 8.81641L56 56.8164M53.8346 22.3684C53.4921 22.2236 53.1239 22.1492 52.752 22.1497H52.712C50.752 22.1817 48.552 24.1497 47.3973 27.1257C46.0133 30.6857 46.6506 34.3257 48.832 35.2644C49.176 35.4111 49.544 35.4831 49.9146 35.4831C51.8853 35.4831 54.1146 33.5044 55.2773 30.5071C56.6533 26.9471 56.0026 23.3071 53.8346 22.3684ZM43.8826 18.7711C44.4533 15.1017 42.8826 11.8537 40.3626 11.5124C40.2195 11.4926 40.0751 11.4828 39.9306 11.4831C37.5706 11.4831 35.3226 14.0697 34.784 17.5284C34.2133 21.1977 35.784 24.4457 38.304 24.7871C38.448 24.8057 38.592 24.8164 38.736 24.8164C41.096 24.8164 43.3493 22.2191 43.8826 18.7711ZM15.1734 35.2644C17.3494 34.3257 17.984 30.6804 16.6027 27.1257C15.44 24.1284 13.2134 22.1497 11.2454 22.1497C10.872 22.1497 10.5067 22.2217 10.16 22.3684C7.98402 23.3071 7.34935 26.9524 8.73068 30.5071C9.89335 33.5044 12.12 35.4831 14.088 35.4831C14.4614 35.4831 14.8267 35.4111 15.1734 35.2644Z" stroke="#F8F3EF" stroke-width="3" stroke-linecap="round" stroke-linejoin="round"/>
</svg>
