<svg width="64" height="65" viewBox="0 0 64 65" fill="none" xmlns="http://www.w3.org/2000/svg">
<path d="M31.9999 11.4883C31.156 12.0941 30.4721 12.8962 30.0075 13.8254C29.5429 14.7546 29.3115 15.783 29.3333 16.8216C29.3115 17.8603 29.5429 18.8886 30.0075 19.8178C30.4721 20.747 31.156 21.5492 31.9999 22.1549M42.6666 11.4883C41.8226 12.0941 41.1388 12.8962 40.6742 13.8254C40.2096 14.7546 39.9782 15.783 39.9999 16.8216C39.9782 17.8603 40.2096 18.8886 40.6742 19.8178C41.1388 20.747 41.8226 21.5492 42.6666 22.1549M21.3333 11.4883C20.4893 12.0941 19.8055 12.8962 19.3409 13.8254C18.8763 14.7546 18.6448 15.783 18.6666 16.8216C18.6448 17.8603 18.8763 18.8886 19.3409 19.8178C19.8055 20.747 20.4893 21.5492 21.3333 22.1549M10.6667 30.1549H53.3333C54.0406 30.1549 54.7189 30.4359 55.219 30.936C55.7191 31.4361 56 32.1144 56 32.8216V34.1549C56 38.1549 49.288 49.0163 45.3333 51.4883V54.1549C45.3333 54.8622 45.0524 55.5405 44.5523 56.0406C44.0522 56.5407 43.3739 56.8216 42.6667 56.8216H21.3333C20.6261 56.8216 19.9478 56.5407 19.4477 56.0406C18.9476 55.5405 18.6667 54.8622 18.6667 54.1549V51.4883C14.168 48.6776 8 38.1549 8 34.1549V32.8216C8 32.1144 8.28095 31.4361 8.78105 30.936C9.28115 30.4359 9.95942 30.1549 10.6667 30.1549Z" stroke="#F8F3EF" stroke-width="3" stroke-linecap="round" stroke-linejoin="round"/>
</svg>
