<svg width="44" height="44" viewBox="0 0 44 44" fill="none" xmlns="http://www.w3.org/2000/svg">
<rect width="44" height="44" rx="22" fill="#732339"/>
<path d="M28 15.9987V16.012M11.3333 16.6654C11.3333 15.2509 11.8952 13.8943 12.8954 12.8941C13.8956 11.8939 15.2522 11.332 16.6666 11.332H27.3333C28.7478 11.332 30.1044 11.8939 31.1045 12.8941C32.1047 13.8943 32.6666 15.2509 32.6666 16.6654V27.332C32.6666 28.7465 32.1047 30.1031 31.1045 31.1033C30.1044 32.1035 28.7478 32.6654 27.3333 32.6654H16.6666C15.2522 32.6654 13.8956 32.1035 12.8954 31.1033C11.8952 30.1031 11.3333 28.7465 11.3333 27.332V16.6654ZM18 21.9987C18 23.0596 18.4214 24.077 19.1716 24.8271C19.9217 25.5773 20.9391 25.9987 22 25.9987C23.0608 25.9987 24.0783 25.5773 24.8284 24.8271C25.5786 24.077 26 23.0596 26 21.9987C26 20.9378 25.5786 19.9204 24.8284 19.1703C24.0783 18.4201 23.0608 17.9987 22 17.9987C20.9391 17.9987 19.9217 18.4201 19.1716 19.1703C18.4214 19.9204 18 20.9378 18 21.9987Z" stroke="white" stroke-linecap="round" stroke-linejoin="round"/>
</svg>
