<svg width="250" height="99" viewBox="0 0 250 99" fill="none" xmlns="http://www.w3.org/2000/svg">
<g clip-path="url(#clip0_995_13985)">
<path d="M249.3 0.828093C246 1.26809 242.68 0.918093 239.37 1.07809C236.47 1.22809 233.56 1.32809 230.66 1.40809C228.99 1.45809 227.27 1.26809 225.58 1.32809C222.86 1.42809 220.15 1.11809 217.43 1.46809C215.55 1.70809 213.65 1.19809 211.74 1.40809C210.29 1.56809 208.82 1.49809 207.37 1.65809C206.74 1.72809 206.2 1.47809 205.6 1.48809C202.02 1.55809 198.43 1.66809 194.85 1.58809C192.23 1.52809 189.58 1.43809 186.97 1.45809C184.06 1.47809 181.15 1.27809 178.23 1.30809C176.33 1.32809 174.4 1.37809 172.49 1.38809C170.54 1.39809 168.62 1.19809 166.68 1.18809C160.97 1.13809 155.27 1.08809 149.56 1.05809C145.7 1.03809 141.84 1.20809 137.99 0.998093C135.86 0.878093 133.75 1.23809 131.6 0.938093C130.53 0.788093 129.31 0.878093 128.15 0.928093C127.53 0.958093 127.31 1.19809 127.73 1.57809C128.64 2.38809 128.57 3.47809 128.77 4.48809C128.81 4.70809 128.62 5.01809 129.15 5.03809C130.82 5.08809 131.66 6.29809 131.24 8.01809C131.1 8.58809 130.9 9.13809 130.58 9.66809C129.09 12.0981 127.83 14.6681 126.1 16.9581C125.49 17.7681 125.19 18.8081 124.67 19.7081C124.35 20.2681 124.61 20.7281 124.78 21.1881C124.92 21.5681 124.88 21.7981 124.57 21.9881C124.2 22.2181 124.08 21.8481 123.94 21.6481C123.48 20.9481 123.08 20.2381 123.03 19.3581C122.88 16.8081 121.96 14.5681 120.12 12.7781C118.17 10.8781 117.6 8.61809 118.12 6.01809C118.41 4.56809 119.49 3.93809 120.78 4.47809C121.32 4.70809 121.4 4.26809 121.52 3.98809C121.93 2.99809 122.41 2.04809 123.33 0.948093C119.04 1.18809 115.01 0.888093 110.78 0.798093C111.42 1.65809 112.47 1.84809 112.84 2.71809C112.95 2.97809 113.36 3.23809 113.04 3.52809C112.78 3.76809 112.55 3.42809 112.34 3.25809C112 2.98809 111.65 2.71809 111.31 2.45809C109.29 0.938093 106.66 1.41809 105.35 3.59809C104.98 4.20809 104.75 4.89809 104.46 5.55809C104.41 5.66809 104.3 5.82809 104.33 5.87809C105.33 7.25809 104.09 9.02809 105.2 10.4581C106.25 11.8181 107.63 12.5381 109.18 13.1781C108.22 11.9681 107.64 10.6381 108.37 9.23809C109.28 7.48809 111.07 6.20809 112.64 7.43809C112.89 7.62809 113.34 7.81809 113.08 8.28809C112.86 8.70809 112.54 8.62809 112.17 8.43809C111.77 8.22809 111.29 8.12809 110.99 8.56809C110.76 8.89809 110.71 9.38809 110.96 9.70809C111.28 10.1081 111.52 10.6781 112.24 10.6081C115.39 10.2981 117.64 11.8781 119.57 14.1281C121.94 16.8781 123.01 20.0881 123.31 23.6881C123.42 24.9981 123.86 26.3081 123.87 27.6681C123.87 28.1581 123.85 28.6181 123.36 28.9181C122.75 29.2881 123.04 29.7081 123.37 30.2081C123.94 29.4481 124.53 28.7781 125.3 28.2881C125.52 28.1481 125.78 27.9481 125.71 27.6181C125.43 26.2781 125.9 25.0281 126.16 23.7581C126.23 23.4281 126.17 23.1381 126 22.8381C125.86 22.5981 125.64 22.2681 125.87 22.0681C126.56 21.4381 126.42 20.3981 127.33 19.7681C128.41 19.0181 128.31 17.4981 128.54 16.2681C129.07 13.3981 130.35 11.1481 133.21 10.0181C134.74 9.41809 136.83 9.85809 137.82 11.1481C138.03 11.4281 138.15 11.4581 138.48 11.3581C140.21 10.8481 143.09 7.69809 142.97 5.67809C142.91 4.72809 142.72 3.98809 141.81 3.52809C140.96 3.09809 140.27 1.98809 139.13 2.99809C138.96 3.14809 138.74 3.07809 138.63 2.86809C138.51 2.62809 138.6 2.41809 138.78 2.21809C139.56 1.36809 142.15 1.10809 143.08 1.80809C144.6 2.95809 145.81 4.29809 146.11 6.30809C146.27 7.41809 146.08 8.51809 145.7 9.41809C144.13 13.1581 141.79 16.0181 137.53 17.1481C135.16 17.7781 132.67 18.2881 130.46 19.4381C129.38 19.9981 128.48 20.9481 127.92 22.0581C127.17 23.5481 126.61 25.1181 126.61 26.8281C126.61 27.2481 126.76 27.7181 126.36 28.0681C126.1 28.2881 126.26 28.4981 126.36 28.7081C126.39 28.7781 126.42 28.8681 126.47 28.9181C127.22 29.5481 127.47 31.0481 128.15 31.0981C129.1 31.1781 129.06 29.6981 129.52 28.9381C132.43 24.0881 136.23 20.2581 141.46 17.8781C142.63 17.3481 143.83 16.7781 144.99 16.1781C146 15.6481 147.28 15.5681 148.45 15.4581C149.87 15.3181 151.13 14.5181 152.59 14.6181C153.93 14.7081 155.27 14.6981 156.61 14.7481C156.83 14.7581 157.01 14.8981 157.03 15.0981C157.05 15.3181 156.86 15.4681 156.66 15.4981C156.15 15.5881 155.64 15.7381 155.14 15.7281C152.77 15.6781 150.51 16.2581 148.2 16.6381C144.16 17.3081 140.73 19.2181 137.57 21.5381C133.23 24.7281 129.95 28.8381 128.4 34.1281C128.36 34.2681 128.38 34.4181 128.38 34.5681C128.38 34.5981 128.43 34.6181 128.57 34.7381C128.91 33.8781 129.23 33.0681 129.55 32.2581C130.81 29.0881 132.87 26.5781 135.79 24.7981C137.2 23.9381 138.91 23.9181 140.39 23.2481C141.04 22.9581 141.73 22.7081 142.43 22.5981C142.9 22.5181 143.66 21.5081 143.92 23.0381C144.02 23.6081 145.2 24.0081 145.9 24.4581C149 26.4881 150.68 29.2581 150.46 33.0481C150.06 32.7681 150.06 32.7681 149.57 31.3581C147.88 35.4681 146.2 39.4981 141.42 40.7881C141.66 41.2881 142.01 41.1581 142.29 41.0781C143.92 40.6281 145.66 40.4881 147.1 39.4481C147.27 39.3181 147.52 39.1081 147.72 39.3881C147.98 39.7481 147.57 39.8781 147.41 40.0381C146.67 40.7581 145.63 40.9681 144.71 41.1981C142.78 41.6781 140.77 42.0281 138.91 40.9181C135.16 38.6881 135 35.0181 137.8 32.2581C139.64 30.4381 142.11 30.6681 143.92 32.4681C144.64 33.1781 145.54 32.9681 146.4 33.0381C146.7 33.0581 147.25 32.8081 147.21 33.3981C147.18 33.8281 146.76 33.7581 146.37 33.7681C144.97 33.7881 143.69 33.4781 142.64 32.5081C141.8 31.7381 140.95 32.1281 140.08 32.3881C137.82 33.0781 136.77 34.5081 136.86 36.8181C136.94 38.8981 139.13 40.4081 141.16 39.9581C144.57 39.1981 146.39 36.7681 147.83 33.8781C149.39 30.7481 149.29 27.6681 145.75 25.4181C143.69 24.1081 141.44 24.7281 139.32 25.5081C135.52 26.8981 133.54 29.9781 132.2 33.5281C131.24 36.0881 130.8 38.7681 130.37 41.4781C129.95 44.1381 129.13 46.8181 127.44 49.0781C126.6 50.1981 124.27 50.3681 123.06 49.6181C120.13 47.8081 119.54 44.9281 119.16 41.8681C118.83 39.2081 118.3 36.5781 117.84 33.9381C117.49 31.9081 116.76 30.0881 115.71 28.3181C114.77 26.7381 113.39 25.8081 111.87 24.8981C109.42 23.4381 107.03 23.6381 104.58 24.6981C101.75 25.9281 100.39 28.2181 99.91 31.1881C99.46 33.9881 100.65 36.5481 103.12 37.8981C104.18 38.4781 105.31 38.8281 106.45 39.1781C106.87 39.3081 107.28 39.4481 107.71 39.5281C110.86 40.1081 112.44 36.7181 111.9 34.2781C111.7 33.3981 109.62 32.5381 108.51 32.8181C107.7 33.0181 106.91 33.2881 106.12 33.5581C104.54 34.0881 101.92 33.1681 101.06 31.7781C100.81 31.3781 100.79 30.9481 100.85 30.5081C100.87 30.3081 101 30.1381 101.22 30.0881C101.52 30.0181 101.61 30.1781 101.72 30.4381C102.19 31.6181 103.26 32.1181 104.3 32.5981C105.22 33.0281 105.99 32.3381 106.75 32.0081C108.53 31.2581 111.42 31.7981 112.67 33.2381C113.46 34.1481 113.37 37.0681 112.52 38.2381C111.26 39.9681 109.75 41.2381 107.48 41.4081C106.63 41.4681 105.73 41.5081 105.03 41.2281C102.97 40.3881 100.64 40.0981 98.99 38.3681C98.43 37.7781 97.65 37.4281 97.14 36.7181C96.61 35.9681 96.29 35.2281 96.34 34.2981C96.37 33.7981 96.62 33.1481 95.89 32.8481C95.82 32.8181 95.74 32.5981 95.76 32.5681C96.94 31.4381 96.97 29.6881 98.02 28.4881C98.15 28.3381 98.31 28.0881 98.45 28.0881C100.05 28.1481 100.22 26.6681 100.94 25.7981C102.48 23.9481 104.57 23.0681 106.81 22.4581C107.03 22.3981 107.21 22.4281 107.32 22.6381C107.52 23.0081 106.86 22.9281 106.99 23.2781C107.42 23.5881 107.49 23.0381 107.72 22.9181C108.13 22.6981 108.1 22.6481 108.39 23.1481C108.6 23.4981 108.95 23.3781 109.25 23.3881C109.61 23.4081 109.58 23.2581 109.48 22.9581C109.3 22.4581 109.76 22.5981 109.98 22.5881C113.45 22.3481 116.51 23.2581 119.02 25.7581C119.6 26.3381 119.93 27.0981 120.24 27.7781C121.01 29.4581 121.52 31.2581 122.1 33.0081C122.17 33.2081 122.17 33.5181 121.86 33.5981C121.58 33.6681 121.43 33.4781 121.32 33.2381C120.74 32.0681 120.25 30.8781 119.99 29.5681C119.68 28.0281 118.54 26.9481 117.46 25.9081C116.11 24.5981 114.38 23.9881 112.58 23.6481C112.05 23.5481 111.61 23.4381 111.19 23.0881C110.99 22.9181 110.7 23.0481 110.6 23.2881C110.49 23.5781 110.78 23.5481 110.95 23.6181C111.9 24.0081 112.9 24.2781 113.77 24.8681C116.67 26.8581 118.15 29.6781 118.73 33.0681C119.07 35.0881 119.52 37.0981 119.86 39.1181C120.04 40.2081 120.02 41.3381 120.21 42.4281C120.52 44.1681 120.69 45.9581 121.86 47.4381C122.18 47.8481 122.51 48.1981 123 48.1981C123.57 48.1981 124.41 47.5481 124.14 48.9081C124.1 49.1081 124.47 49.0781 124.71 49.0981C126.2 49.1981 127.03 48.2481 127.58 47.1381C128.24 45.8081 128.82 44.3881 129.16 42.9381C129.93 39.6081 130.1 36.1581 131.46 32.9481C132.68 30.0581 133.98 27.2681 136.86 25.6181C137.03 25.5281 137.15 25.3681 137.25 25.1681C135.79 25.4981 134.74 26.5381 133.73 27.4981C131.58 29.5281 130.18 32.0281 129.53 34.9481C129.32 35.9081 128.91 36.8281 128.57 37.7581C128.4 38.2481 128.01 38.5481 127.54 38.6881C127.2 38.7881 126.79 38.8481 126.54 38.5281C126.23 38.1381 126.7 37.9881 126.86 37.7581C127.93 36.1981 127.65 31.9981 126.37 30.5081C125.29 29.2481 125.26 29.3381 124.29 30.6781C123.21 32.1681 123.45 33.8681 123.23 35.4881C123.1 36.4681 123.22 37.4881 123.19 38.4881C123.18 38.7981 123.42 39.3081 122.85 39.3381C122.41 39.3581 122.12 38.9981 122.12 38.5481C122.11 37.1881 121.81 35.7281 122.22 34.4981C122.82 32.6781 122.42 30.9781 122 29.3581C121.56 27.7081 120.83 26.0581 119.68 24.6781C118.17 22.8681 116.17 21.7081 114.13 20.6581C110.5 18.7981 106.67 17.3881 102.77 16.1781C100.35 15.4281 97.84 15.7481 95.38 15.5281C94.87 15.4881 94.38 15.7081 94.33 16.5881C94.21 18.4981 93.63 18.8881 91.65 18.9081C91.49 18.9081 91.32 18.8681 91.17 18.9181C89.34 19.5581 87.42 18.8581 85.57 19.2981C83.39 19.8081 81.29 20.4281 79.64 22.0581C76.36 25.2881 74.2 29.1381 73.2 33.6181C72.77 35.5681 73.5 37.4581 73.91 39.3381C74.28 41.0281 74.16 42.6381 73.54 44.2281C73.45 44.4481 73.32 44.7181 73.04 44.6281C72.78 44.5481 72.72 44.2581 72.8 44.0181C73.68 41.5081 72.52 39.1781 72.2 36.7781C72.16 36.4681 72.1 36.1481 72.06 35.8381C72.01 35.4281 72.2 34.9581 71.5 34.8581C70.92 34.7781 70.36 34.4281 69.86 35.0381C69.18 35.8581 68.46 36.6381 68.02 37.6481C67.03 39.9081 67.11 42.2081 67.68 44.5181C67.82 45.0981 67.97 45.6681 68.03 46.2581C68.22 48.2281 69.25 49.8281 70.35 51.3981C70.46 51.5581 70.68 51.8281 70.75 51.7981C72.11 51.2281 71.81 52.5981 72.28 53.0681C73.34 54.1181 74.64 54.7981 76.08 55.1581C76.48 55.2581 76.93 55.2181 77.34 55.4081C77.38 55.2381 77.43 55.1281 77.41 55.1081C74.79 52.9381 75.98 50.3481 76.67 47.8681C77.07 46.3981 77.72 44.9981 78.27 43.5681C79.14 41.3281 78.72 38.9381 78 36.6781C77.69 35.6881 76.72 35.7181 75.87 35.7681C74.89 35.8181 74.04 35.6581 73.59 34.6281C73.46 34.3181 73.26 34.0281 73.58 33.7781C73.91 33.5281 74.1 33.8681 74.23 34.0781C74.62 34.6781 75.19 34.6881 75.81 34.6881C78 34.6981 78.89 35.5981 79.29 37.7781C79.66 39.7781 80.15 41.7681 79.32 43.7281C78.71 45.1581 78.19 46.6181 77.67 48.0781C77.21 49.3581 77.14 50.7081 76.94 52.0281C76.75 53.2281 77.86 53.8081 78.87 54.3881C80.71 55.4481 81.32 53.7481 82.37 53.1981C83.81 52.4381 83.98 50.9581 83.94 49.4681C83.93 48.9981 83.87 48.4981 84.24 48.0981C84.68 48.0881 84.59 48.4681 84.66 48.6981C85.19 50.3881 84.18 53.1581 82.71 54.0981C82.51 54.2281 82.29 54.3581 82.15 54.5381C80.62 56.5281 78.6 56.5681 76.36 56.1681C74.34 55.8081 72.87 54.6281 71.26 53.5081C69.37 52.1781 68.05 50.4781 67.39 48.3681C66.43 45.2981 65.84 42.0881 66.39 38.8681C66.72 36.9281 67.88 35.2881 69.35 33.9481C70.19 33.1781 71.08 33.4181 71.94 34.1981C72.74 29.4081 75.14 25.4981 78.11 21.9981C80.02 19.7481 82.78 18.6781 85.73 18.2781C86.33 18.1981 87.35 18.2481 87.26 17.6081C87.14 16.8081 86.22 17.2881 85.63 17.3581C79.86 18.0781 74.5 19.9281 69.33 22.6081C67.48 23.5681 65.59 24.4581 63.83 25.5781C61.51 27.0381 59.46 28.7981 57.9 31.1081C57.33 31.9481 56.52 32.6181 55.87 33.3981C54.68 34.8281 54.06 36.4481 54.45 38.3381C54.46 38.3781 54.49 38.4081 54.5 38.4481C54.8 40.8481 54.81 40.8781 57.27 40.8681C59.97 40.8581 62.34 41.7881 64.42 43.4281C66.54 45.0981 66.77 47.4481 66.43 49.9181C65.96 53.3081 63.96 55.5981 61.01 57.1281C59.85 57.7281 58.92 58.5681 58 59.4681C56.4 61.0181 56.87 66.1481 59.21 67.1981C59.76 67.4481 60.19 67.6981 60.67 67.0881C61.04 66.6081 61.36 66.6581 61.24 67.3281C61.15 67.8581 61.47 67.7981 61.7 67.6881C62.84 67.1281 64.05 66.6781 65.02 65.8581C65.64 65.3381 65.66 63.0381 65.1 62.2181C64.7 61.6281 64.19 61.1181 63.72 60.5781C63.57 60.4081 63.48 60.2481 63.65 60.0581C63.8 59.8881 63.97 59.8781 64.18 60.0081C65.44 60.7481 66.39 61.7381 66.47 63.2781C66.55 64.8881 66.57 66.5081 64.72 67.3281C64.07 67.6181 63.44 67.9881 62.87 68.4181C62.35 68.7981 61.69 69.0381 61.2 68.9381C59.05 68.4681 56.65 69.0181 54.85 67.0781C53.43 65.5481 51.71 64.3381 51.17 62.0981C50.8 60.5781 51.11 59.2781 51.72 57.9481C51.84 57.6881 52.59 57.2581 51.51 57.2581C51.33 57.2581 51.03 56.3881 51 55.8981C50.84 53.7181 50.81 51.9081 53.32 50.3881C53.66 50.1781 54 49.9781 54.32 49.7381C55.52 48.8581 55.58 47.9481 54.72 46.7181C53.98 45.6481 53.11 46.4181 52.34 46.4781C51.63 46.5381 52.19 47.1381 52.16 47.5181C52.08 48.6781 51.42 49.6381 50.47 50.1281C48.1 51.3581 47.07 53.5681 45.94 55.7481C44.83 57.8881 44.24 60.2681 44.16 62.5781C44.08 64.7381 44.27 67.0781 45.59 69.0581C46.04 69.7281 46.09 70.6081 46.83 71.1681C49.22 72.9781 51.71 73.2681 54.48 72.0981C56.33 71.3181 58.02 70.1981 60.05 69.7581C62.65 69.1981 64.69 70.1781 66.68 71.5481C67.33 71.9981 66.81 73.0581 67.63 73.5181C66.94 73.5181 66.25 73.5381 65.57 73.5081C65.11 73.4881 64.69 73.5781 64.35 73.8881C63.92 74.2681 63.65 74.6881 64.48 74.8681C66.82 75.3581 68.76 76.6781 70.47 78.1681C72.36 79.8181 73.97 81.6681 74.26 84.5381C74.5 86.8781 75.12 89.1381 74.58 91.5281C74.12 93.5481 73.01 95.0481 71.38 96.2481C68.98 98.0081 66.31 98.4181 63.49 97.7281C62.1 97.3881 61.36 96.1681 60.95 94.9381C60.53 93.6481 59.87 92.3381 60.14 90.9081C60.39 89.5881 60.75 88.3581 62.18 87.6581C63.16 87.1781 63.96 87.5981 64.83 87.7281C64.95 87.7481 65.12 87.9281 65.13 88.0481C65.15 88.2781 64.95 88.3881 64.74 88.4181C64.54 88.4481 64.34 88.4381 64.14 88.4181C62.36 88.2081 60.88 89.4081 60.95 91.2081C61.03 93.0081 61.34 94.7881 62.62 96.2281C62.93 96.5781 63.25 96.8181 63.7 96.8581C65.26 96.9681 66.92 97.6681 68.38 96.9481C72.39 94.9481 73.95 93.2481 73.79 88.1781C73.74 86.6081 73.11 85.1481 72.38 83.7081C70.48 79.9581 67.14 79.4481 63.47 79.3481C62.32 79.3181 61.13 79.4581 59.97 78.9381C59.16 78.5781 58.2 78.5181 57.29 78.4681C54.6 78.3081 52.34 76.9981 50.11 75.7181C46.97 73.9181 44.85 71.1581 43.68 67.7381C42.93 65.5681 42.69 63.2681 42.42 60.9981C41.98 57.3381 42.7 53.7681 43.41 50.1981C42.24 50.0881 41.66 50.4681 41.45 51.6681C41.19 53.1781 38.9 54.3381 37.62 54.4181C37.07 54.4481 36.66 54.7081 36.18 54.7981C33.76 55.2581 31.63 54.5381 29.61 53.3381C27.08 51.8281 26.21 49.3381 27.01 46.4381C27.39 45.0581 27.69 43.7281 28.96 42.7481C29.48 42.3481 29.32 41.2481 29.9 40.5081C30.22 41.4181 29.94 42.4781 31.12 43.1781C28.61 43.2281 28.16 44.7381 27.84 46.5681C27.42 48.9081 28.47 50.9081 30.75 51.5781C32.32 52.0381 34.17 51.3381 35.07 49.7781C35.69 48.6981 35.99 47.5081 36.1 46.1981C36.28 43.9781 35.91 41.6781 36.86 39.5381C37.86 37.2981 39.37 35.7581 41.92 35.3381C42.76 35.1981 43.52 34.7881 44.44 34.8981C45.98 35.0881 47.08 35.6981 47.81 37.1481C48.6 38.7081 49.42 38.8381 50.83 37.7881C52.31 36.6781 53.02 34.9181 54.21 33.5781C57.34 30.0581 60.32 26.4181 64.51 23.9781C67.69 22.1281 70.98 20.4881 74.31 18.9981C76.49 18.0281 78.95 17.6581 81.29 17.0781C82.57 16.7581 83.89 16.5381 85.17 16.1281C81.41 15.8781 77.69 16.3981 73.95 16.5981C70.12 16.7981 66.61 17.9281 63.09 19.3281C64.52 21.2081 64.57 21.2381 63.25 23.2781C62.1 25.0581 60.5 26.0481 58.26 26.2781C55.97 26.5181 53.69 26.7281 51.38 26.8781C47.76 27.1081 45.04 25.3881 42.24 23.4681C39.77 21.7781 38.78 16.9381 40.04 13.9781C40.99 11.7381 43.57 10.1281 46.07 10.8881C46.99 11.1681 47.69 11.5381 48.29 12.1981C48.42 12.3381 48.6 12.5981 48.39 12.8381C48.17 13.0881 47.93 12.9681 47.76 12.8081C46.43 11.5381 44.84 11.5581 43.36 12.2381C41.07 13.2881 40.26 15.2781 40.5 17.7181C40.57 18.4181 40.81 19.0981 40.92 19.7981C41.01 20.3581 40.97 20.9681 41.85 20.7181C42.01 20.6781 42.11 20.8081 42.18 20.9781C42.67 22.1281 43.59 22.0481 44.59 21.8081C46.47 21.3681 47.81 20.3081 48.89 18.6881C50.52 16.2481 52.55 14.1881 55.45 13.2281C55.79 13.1181 56.11 12.9481 56.43 12.7881C56.95 12.5081 57.3 12.0481 57.97 12.8481C58.37 13.3281 59.53 13.3381 60.32 13.2781C62.2 13.1281 63.4 15.6081 62.48 17.3081C62.25 17.7381 61.91 18.1281 61.84 18.8081C64.14 17.7181 66.4 16.9581 68.71 16.3081C70.79 15.7181 72.92 15.5081 75.05 15.3481C78.18 15.1181 81.34 14.7681 84.46 14.9681C86.13 15.0781 86.97 14.7181 88.14 13.5681C90.08 11.6681 92.42 12.1881 94.14 14.4481C94.33 14.6981 94.53 14.7581 94.85 14.7181C98.8 14.2581 102.56 14.8981 106.31 16.2881C110.35 17.7781 114.29 19.4081 117.9 21.7481C119.89 23.0281 121.17 24.9581 122.13 27.0981C122.3 27.4881 122.34 27.9481 122.83 28.1181C123.45 26.2881 122.35 23.1781 119.96 21.3381C118.17 19.9681 116.19 19.0781 114.12 18.2581C111.23 17.1081 108.25 16.0681 105.89 13.8981C102.69 10.9481 102.04 7.43809 104.05 3.71809C104.64 2.62809 105.42 1.65809 106.62 1.10809C106.59 1.00809 106.56 0.918093 106.52 0.818093C105.25 0.818093 103.98 0.818093 102.71 0.818093C97.48 0.818093 92.24 0.948093 87.01 0.778093C80.61 0.598093 74.19 0.648093 67.78 0.628093C60.13 0.608093 52.48 0.528093 44.84 0.658093C41.2 0.718093 37.56 0.858093 33.93 0.828093C31.92 0.818093 29.9 0.498093 27.91 0.668093C25.42 0.878093 22.95 0.628093 20.47 0.708093C14.21 0.898093 7.94999 0.818093 1.69999 0.838093C1.53999 0.838093 1.37999 0.848093 1.21999 0.828093C0.999991 0.818093 0.679991 0.878093 0.699991 0.528093C0.719991 0.208093 1.02999 0.238093 1.25999 0.228093C1.61999 0.218093 1.97999 0.218093 2.33999 0.218093C13.94 0.218093 25.54 0.238093 37.14 0.208093C45.96 0.188093 54.77 0.0880933 63.59 0.0380933C67.79 0.0180933 71.99 0.0380933 76.19 0.0280933C83.58 0.0280933 90.97 0.0280933 98.35 0.0280933C102.37 0.0280933 106.39 -0.0519067 110.41 0.0580933C113.98 0.158093 117.55 0.188093 121.12 0.208093C127.97 0.228093 134.82 0.218093 141.67 0.218093C145.48 0.218093 149.28 0.208093 153.09 0.378093C156.38 0.518093 159.69 0.408093 162.98 0.408093C166.73 0.408093 170.48 0.268093 174.22 0.458093C177.81 0.638093 181.4 0.638093 184.99 0.618093C191.96 0.578093 198.91 1.05809 205.88 0.858093C207.96 0.798093 210.05 0.668093 212.13 0.658093C217.97 0.628093 223.82 0.778093 229.66 0.608093C236.21 0.408093 242.75 0.538093 249.29 0.368093C249.3 0.508093 249.3 0.668093 249.3 0.828093ZM43.45 61.1681C43.47 60.1181 43.88 59.1581 44.18 58.2081C45.25 54.7681 46.62 51.4881 49.83 49.3681C50.65 48.8181 51.5 48.0881 50.87 46.7981C50.68 46.4081 51.06 46.0681 51.42 45.8581C52.19 45.3981 53.04 45.2181 53.93 45.2281C55.45 45.2381 57.13 47.9481 56.47 49.3181C56.42 49.4181 56.33 49.5181 56.24 49.5881C55.58 50.1081 54.99 50.7881 54.25 51.0981C52.14 51.9781 51.99 53.7981 51.82 55.6481C51.79 56.0181 52.03 56.2581 52.31 56.4081C52.71 56.6181 52.78 56.1681 52.88 55.9881C53.52 54.8081 54.53 53.9681 55.45 53.0381C55.74 52.7481 55.99 52.5081 56.34 52.8581C56.73 53.2381 56.25 53.4081 56.07 53.6081C54.6 55.3281 53.16 57.0681 52.24 59.1681C51.92 59.9081 51.81 60.5881 51.99 61.4281C52.5 63.7281 54.04 65.1881 55.74 66.6081C56.38 67.1481 57.04 67.4181 57.97 67.5981C57.21 66.4981 56.42 65.5881 56.27 64.3581C55.97 61.8981 55.82 59.5381 58.22 57.8381C59.39 57.0081 60.63 56.3081 61.79 55.4981C63.86 54.0381 65.04 51.9381 65.3 49.2981C65.45 47.7781 65.63 46.3781 64.46 45.1881C63.11 43.8181 61.66 42.6581 59.63 42.3681C58.67 42.2381 57.73 42.2381 56.77 42.1981C54.45 42.0981 52.95 41.0181 53.11 38.3781C53.15 37.7881 53.12 37.1981 53.12 36.5481C53.01 36.6781 52.93 36.7181 52.91 36.7781C52.41 38.3981 51.18 39.4081 49.65 39.5681C48.31 39.7081 47.4 38.5581 46.73 37.4081C46.34 36.7381 45.83 36.1481 45.09 35.9081C43.25 35.3181 39.84 36.4781 38.64 38.0681C37.73 39.2881 37.26 40.5781 37.25 42.1881C37.24 43.8681 36.98 45.5681 36.83 47.2581C36.62 49.6881 35.02 52.4381 31.67 52.3981C30.45 52.3781 29.64 51.7481 28.52 51.2381C28.65 51.5381 28.69 51.6781 28.77 51.7981C28.89 51.9581 29.02 52.1081 29.18 52.2181C31.23 53.7181 33.5 54.5381 36.05 54.1281C37.54 53.8881 39.05 53.3881 40.06 52.1981C40.94 51.1681 41.39 49.8881 40.87 48.4781C40.77 48.2081 40.91 47.9381 41.12 47.8881C41.55 47.7981 41.61 48.2181 41.72 48.4881C41.88 48.8981 41.73 49.5581 42.47 49.4781C43.14 49.4081 43.55 48.9381 43.66 48.3081C43.8 47.4981 44.05 46.7281 43.77 45.8481C43.44 44.7881 44.57 43.1281 45.57 42.9181C46.51 42.7281 47.97 43.8081 48.16 44.9181C48.22 45.3081 48.54 45.5081 48.61 45.9281C48.06 46.0281 47.59 46.2581 47.21 46.7081C45.63 48.5581 44.31 50.3981 43.93 53.0081C43.53 55.7281 43.24 58.4181 43.45 61.1681ZM43.34 22.9481C44.69 24.5281 46.46 25.3181 48.18 25.7181C50.55 26.2681 53.06 26.1781 55.51 25.9981C56.23 25.9481 56.95 25.3881 57.65 25.4281C60.32 25.5781 61.76 23.9481 63.03 21.9781C63.37 21.4481 63.45 20.9181 62.95 20.4781C62.52 20.0881 62.1 19.7381 61.39 20.1281C60.71 20.5081 59.97 20.8181 59.12 20.7281C58.5 20.6581 57.85 20.3781 57.92 19.8481C57.99 19.3181 58.63 19.7181 59.03 19.7881C59.87 19.9281 61.14 19.3981 61.05 19.0481C60.78 17.9781 61.52 17.3481 61.74 16.5381C62.03 15.4681 61.53 14.7781 60.71 14.5681C59.07 14.1581 57.37 13.9681 55.7 14.4881C52.81 15.3881 50.84 17.4181 49.26 19.8781C49.02 20.2481 48.82 20.6381 48.49 20.9381C47.08 22.2081 45.33 22.6481 43.34 22.9481ZM128.85 5.29809C128.9 6.66809 128.43 7.76809 127.98 8.85809C127.86 9.13809 127.72 9.56809 127.34 9.40809C127.04 9.27809 126.84 8.92809 127.01 8.50809C127.23 7.95809 127.39 7.38809 127.61 6.84809C128.5 4.60809 127.5 1.84809 125.54 1.01809C124.99 0.788093 124.56 0.848093 124.35 1.36809C124.08 2.05809 123.58 2.56809 123.19 3.16809C122.06 4.92809 121.48 6.75809 122.33 8.81809C122.47 9.15809 122.9 9.61809 122.37 9.84809C121.8 10.1081 121.51 9.53809 121.39 9.09809C121.05 7.83809 120.29 6.60809 121.02 5.23809C119.68 5.20809 119.38 6.07809 119.24 7.00809C119.09 8.07809 119.33 9.10809 119.67 10.1581C119.95 11.0081 120.8 11.2081 121.18 11.8681C122.33 13.8581 123.94 15.6181 124.12 18.1481C124.97 16.7681 125.71 15.4181 126.63 14.1881C127.77 12.6681 128.36 10.8481 129.51 9.30809C130.79 7.60809 130.53 6.49809 128.85 5.29809ZM48.54 73.2881C48.69 73.4581 48.8 73.6781 48.98 73.7981C51.33 75.5181 53.92 76.8081 56.71 77.5881C58.28 78.0281 59.96 78.1881 61.6 78.2381C62.84 78.2781 64.02 78.7981 65.25 78.6081C66.18 78.4681 67.03 78.7481 67.92 78.9181C69.12 79.1481 70.11 79.7981 71.18 80.3381C71.17 80.0881 71.11 79.9381 71 79.8381C69.31 78.3081 67.5 76.9081 65.36 76.1081C63.76 75.5081 62.06 74.9881 60.34 75.7981C59.73 76.0881 59.27 75.7981 58.81 75.4481C58.61 75.2981 58.4 75.1281 58.5 74.8681C58.63 74.5181 58.93 74.6981 59.19 74.6681C60.74 74.4981 62.55 75.1181 63.57 73.2481C63.79 72.8581 64.26 72.7381 64.72 72.7181C65.18 72.6981 65.65 72.6781 66.21 72.6481C64.55 71.2381 62.56 70.7481 60.72 70.8481C58.88 70.9381 57.4 71.8681 55.81 72.5581C53.47 73.5881 51.15 74.5981 48.54 73.2881ZM143.98 4.39809C144.63 7.68809 142.48 10.2681 140.24 11.8881C139.42 12.4781 138.41 12.8181 137.46 13.1981C137.1 13.3381 136.65 13.3481 136.36 12.9681C136.1 12.6181 136.35 12.3781 136.58 12.1481C136.77 11.9581 136.86 11.7581 136.56 11.5781C135.96 11.2081 135.42 10.7481 134.59 10.9481C131.24 11.7381 128.84 15.2881 129.38 18.8281C130.28 18.2781 131.23 17.9581 132.2 17.6181C133.47 17.1781 134.77 16.8181 136.06 16.4281C139.58 15.3481 142.64 13.7681 144.16 10.1081C144.97 8.19809 145.47 5.86809 143.98 4.39809ZM121.99 21.8381C121.78 20.7181 121.81 19.7281 121.41 18.9781C119.43 15.2581 117.22 11.8081 112.31 11.6481C110.74 11.5981 109.85 10.4681 109.9 9.06809C108.95 10.1481 108.91 11.0081 109.77 11.9881C110.36 12.6581 111.01 13.2081 111.97 13.2581C112.45 13.2881 112.85 13.6881 112.42 14.0081C111.92 14.3881 111.02 14.7981 110.58 14.5781C109.51 14.0581 108.19 14.5181 107.3 13.5081C107.47 14.0181 107.8 14.2581 108.17 14.4981C110.52 15.9881 113.14 16.8781 115.7 17.9081C117.91 18.8081 120 19.9381 121.99 21.8381ZM91.96 17.8881C92.81 18.0681 93.23 17.6781 93.36 16.8681C93.67 14.9281 92.98 14.0581 90.97 13.7781C89.81 13.6181 88.95 14.1281 88.3 14.9581C87.42 16.0781 88.32 16.9281 88.88 17.8181C89.62 19.0081 89.83 17.5081 90.31 17.5581C90.56 17.5881 90.87 17.4081 91.08 17.7081C91.32 18.0281 91.67 17.8581 91.96 17.8881ZM105.53 40.1981C103.07 39.5081 101.07 38.2481 99.77 35.9881C98.44 33.6781 98.77 31.2881 99.38 28.8481C98.59 29.4481 98.14 30.2581 97.83 31.0981C97.41 32.2181 97.05 33.5281 97.39 34.5781C97.83 35.9481 98.58 37.2581 100.01 38.1081C101.73 39.1581 103.39 40.2381 105.53 40.1981ZM44.91 47.9981C45.54 47.0981 46.17 46.2881 46.89 45.5681C47.39 45.0681 47.44 44.8281 46.78 44.4381C45.74 43.8181 44.81 44.2181 44.83 45.4681C44.84 46.3081 44.95 47.1481 44.91 47.9981Z" fill="#AB7B88"/>
<path d="M186.66 60.8395C184.65 61.5395 184.49 62.2995 185.96 63.6895C186.92 64.5995 188.56 64.7295 189.39 64.0595C189.9 63.6495 189.93 63.0795 189.96 62.5895C190.04 61.3595 189.97 60.1195 190.21 58.8995C190.61 56.9195 189.18 55.5995 188.32 54.1695C186.68 51.4395 186.51 47.2695 188.17 44.5795C189.16 42.9695 192.22 42.0595 193.89 42.9895C195.09 43.6595 196.28 44.3495 197.83 43.9995C198.78 43.7895 199.12 43.1095 199.07 42.5195C198.99 41.6995 198.84 40.8695 198.76 40.0295C198.69 39.3095 197.97 38.8595 197.59 38.2595C197.44 38.0195 196.98 37.7995 197.42 37.4895C197.75 37.2595 197.86 37.6995 198.07 37.8395C198.25 37.9595 198.41 38.1095 198.78 38.4195C198.47 37.2595 197.68 36.6695 197.37 35.8395C195.83 31.6995 192.56 29.2195 189.04 26.9095C187.03 25.5895 185.14 24.1095 183.01 22.9595C180.9 21.8295 178.69 20.8295 176.38 20.3695C174.66 20.0295 173.01 19.4595 171.3 19.1195C170.99 19.0595 170.69 18.9595 170.08 19.1195C172.5 20.0495 174.08 21.7295 175.75 23.2595C177.82 25.1495 178.97 27.6595 179.91 30.2495C180.57 32.0795 181.03 33.9495 181.08 35.9095C181.08 36.0895 181.17 36.2595 181.14 36.4695C180.93 38.0695 181.03 38.2795 182.58 38.5495C183.3 38.6695 183.48 39.1595 183.49 39.5995C183.53 41.2895 184.13 42.9895 183.55 44.6795C182.69 47.1895 181.67 49.4995 179.35 51.1795C178.08 52.0895 176.9 53.0895 175.41 53.4695C173.2 54.0295 170.95 54.2195 168.72 53.3395C166.5 52.4595 165.31 50.6795 164.43 48.6195C163.97 47.5595 164.17 46.7295 165 45.9495C165.18 47.2695 164.82 48.5995 165.69 49.7595C166.22 50.4695 166.84 51.0795 167.43 51.7195C167.51 51.7995 167.7 51.9095 167.71 51.9095C168.59 50.7995 169.49 52.6695 170.36 51.8895C171.12 51.2195 171.6 50.3395 172.17 49.5295C173.17 48.0795 173.13 46.6095 172.45 45.0195C171.28 42.2895 172.63 38.4795 175.09 37.2995C176.31 36.7195 178.28 37.2895 179.14 38.4695C178.66 38.7095 178.3 38.3595 177.9 38.2195C175.63 37.4095 174.01 38.5795 173.36 40.5795C172.87 42.0995 172.81 43.5895 173.41 45.1095C174.5 47.8895 172.99 51.4495 170.25 52.7395C170.14 52.7895 170.05 52.8695 169.89 52.9795C170.61 53.6295 171.31 53.1595 171.96 53.2195C173.41 53.3495 174.73 53.0395 176.08 52.4195C178.54 51.2795 180.41 49.5495 181.73 47.2295C183.04 44.9195 183.32 42.4295 182.74 39.8495C182.53 38.8995 181.49 39.1995 180.98 38.4995C180.7 40.1695 180.39 41.6395 178.99 42.5595C178.83 42.6695 178.73 42.8695 178.51 42.7195C178.3 42.5695 178.41 42.3895 178.46 42.1995C178.56 41.7795 178.92 41.5595 179.16 41.2495C179.81 40.4095 180.38 39.5495 179.74 38.4395C179.66 38.2995 179.51 38.1295 179.66 38.0195C181.19 36.8995 180.23 35.4395 180.08 34.1795C179.75 31.4595 178.54 28.9995 177.18 26.6795C176.39 25.3295 175.17 24.2195 173.99 23.1595C171.98 21.3595 169.86 19.7195 167.13 19.1295C166.99 19.0995 166.86 18.9595 166.74 18.8595C165.74 18.0295 164.82 18.1695 163.93 19.0495C163.62 19.3495 163.19 19.5395 162.9 19.8595C162.21 20.6195 161.63 20.4395 161.03 19.7695C160.9 19.6295 160.74 19.4895 160.56 19.4195C158.63 18.7095 158.01 17.2895 158.65 15.0295C159.09 13.4795 160.56 12.8495 162.52 13.3395C163.75 13.6495 164.66 14.3895 165.32 15.4395C165.68 15.9995 166.09 16.1895 166.77 16.2195C169.62 16.3195 172.5 15.8195 175.31 16.6495C177.81 17.3895 180.36 17.9995 182.79 18.9795C183.93 19.4395 185.11 19.7995 186.28 20.1795C186.9 20.3795 187.09 20.1195 186.97 19.5195C186.35 16.4395 188.1 14.3895 191.34 14.0295C194.68 13.6595 197.7 14.5495 200.65 15.8995C202.36 16.6795 204.07 16.6495 205.75 16.0995C207.92 15.3895 208.26 13.1895 207.19 11.1795C206.11 9.13948 204.41 8.80948 202.52 8.51948C202.25 8.47948 201.86 8.51948 201.93 8.13948C201.97 7.89948 202.32 7.79948 202.63 7.78948C205.25 7.63948 208.58 9.55948 209.3 11.9795C209.88 13.9195 209.8 16.0595 208.77 17.8595C207.78 19.5895 206.71 21.3495 204.95 22.4995C204.71 22.6495 204.51 22.8195 204.21 22.8395C203.3 22.8995 202.55 23.2995 201.89 23.9095C201.4 24.3495 200.82 24.5095 200.15 24.5595C199.02 24.6395 197.91 24.7795 196.8 25.1595C194.39 25.9795 190.41 24.4495 189.02 22.2595C188.66 21.6895 188.07 21.4095 187.57 21.3495C185.13 21.0295 182.98 19.8395 180.65 19.2195C177.64 18.4195 174.71 17.1595 171.56 17.1295C169.82 17.1095 168.04 16.8895 166.28 17.2495C166.38 17.6195 166.66 17.6995 166.85 17.6395C168.25 17.1895 169.5 17.7895 170.81 18.1095C171.84 18.3595 172.91 18.4595 173.96 18.6295C178.51 19.3595 182.58 21.3095 186.38 23.7995C188.87 25.4295 191.28 27.2095 193.58 29.1095C195.68 30.8495 197.1 33.1595 198.32 35.5995C199.29 37.5495 200.37 39.4295 200.58 41.6695C200.62 42.1395 200.84 42.6595 201.21 43.0595C201.99 43.8895 203.21 43.7295 203.55 42.6895C203.83 41.8295 204.45 41.4895 205.22 41.3995C207.01 41.1795 208.67 41.5595 210.21 42.5595C211.23 43.2195 212 44.1395 212.9 44.9195C214.26 46.0795 217.58 44.9695 217.95 43.2195C217.99 43.0295 217.98 42.8095 217.93 42.6295C217.03 39.6595 215.33 38.5695 212.24 38.8895C211.7 38.9495 210.83 39.5795 210.69 38.9395C210.56 38.3295 211.53 38.7095 212 38.5795C215.61 37.5895 217.29 38.5995 218.67 42.1795C219.77 45.0295 219.68 47.5795 217.56 49.8995C217.51 49.9595 217.48 50.0795 217.42 50.0895C215.48 50.5695 215.72 52.0795 215.65 53.5595C215.56 55.4795 214.21 56.5895 212.52 57.0495C211.02 57.4595 209.62 56.8995 208.54 55.7095C207.16 54.1795 205.77 52.6695 205.78 50.3795C205.78 49.6595 205.05 49.3595 203.59 49.1795C204.08 48.2795 204.36 48.1895 205.02 48.7895C205.76 49.4695 206.26 50.1995 206.48 51.2795C206.87 53.1495 208.71 56.0095 211.82 56.1795C213.12 56.2495 213.98 55.3495 214.66 54.3295C215.26 53.4395 215.32 52.4595 214.9 51.4995C214.68 50.9995 214.12 51.1795 213.71 51.1895C212.57 51.2195 211.65 50.7295 210.79 50.0695C210.48 49.8295 210.29 49.4195 210.6 49.1395C210.88 48.8895 211.01 49.3495 211.21 49.5095C212.18 50.2795 213.24 50.7495 214.52 50.4395C217.44 49.7195 218.91 47.4495 218.49 44.1195C217.68 44.9395 217.01 45.7695 215.91 46.1395C213.54 46.9195 212.94 46.3995 211.56 44.7395C209.89 42.7295 207.92 41.9395 205.44 42.0195C204.89 42.0395 204.46 42.2695 204.21 42.8195C203.96 43.3595 204.04 44.2195 203.22 44.2795C202.31 44.3495 201.3 44.3295 200.61 43.6695C199.87 42.9495 199.66 43.0695 199.31 43.9795C199 44.7795 196.59 45.1995 195.49 44.7395C194.72 44.4195 193.96 44.0895 193.22 43.7195C191.53 42.8895 189.42 44.1595 188.74 45.4095C187.45 47.7795 187.31 50.1495 188.39 52.5795C188.93 53.7995 189.63 54.9195 190.4 56.0195C191.08 56.9895 190.74 58.3095 190.74 59.4695C190.74 60.4195 190.43 61.3795 190.55 62.3095C190.71 63.5495 189.86 64.1695 189.28 64.9595C189.01 65.3395 188.55 65.1295 188.16 65.1395C187.77 65.1495 187.45 64.7195 186.87 65.0995C187.95 65.5695 188.88 66.0295 190 65.8895C190.24 65.8595 190.48 65.8295 190.72 65.8695C192.76 66.2195 193.62 64.7895 194.55 63.4095C195.52 61.9795 195.81 60.3695 195.99 58.7095C196.11 57.6495 195.43 56.9095 194.86 56.1495C194.43 55.5695 194.11 55.0195 194.32 54.2795C194.38 54.0795 194.55 53.9395 194.77 53.9795C195.52 54.1295 195.66 54.8295 195.94 55.3795C196.14 55.7595 196.27 56.1895 196.37 56.6195C196.56 57.3595 197.06 57.8195 197.75 57.9795C198.65 58.1995 199.5 58.5095 200.27 58.9895C200.77 59.2995 200.96 59.1895 201.08 58.6395C201.51 56.5795 201.36 54.6295 200.11 52.8495C199.7 52.2695 199.27 51.7095 199.08 50.9895C198.8 49.9195 199.28 49.2595 200.37 49.4195C200.88 49.4895 201.18 49.3795 201.49 48.9795C201.67 48.7395 201.99 48.5895 202.27 48.4495C202.58 48.2995 202.94 48.2995 203.1 48.6495C203.32 49.1295 202.82 48.9895 202.63 49.0895C201.88 49.4995 201.84 50.0095 202.42 50.5895C202.93 51.0895 203.44 51.5995 204 52.0395C206.16 53.7295 206.63 56.1695 207.08 58.6595C207.65 61.8495 206.77 64.8195 205.57 67.6495C204.42 70.3395 202.56 72.4895 200.01 74.1595C197.55 75.7695 194.93 76.8795 192.16 77.6495C190.53 78.0995 188.8 78.1295 187.12 78.4295C184.4 78.9195 181.73 79.7295 179.55 81.3995C176.49 83.7595 176.59 87.9795 179.58 89.7795C182.29 91.4095 184.79 90.8695 186.96 88.8095C188.5 87.3395 187.81 84.8795 185.78 84.2295C184.92 83.9495 184.37 84.5595 184.49 85.6495C184.52 85.9395 184.84 86.3495 184.35 86.4195C183.9 86.4895 183.84 86.0195 183.82 85.6695C183.79 84.9895 183.77 84.2495 184.4 83.8295C185.04 83.3995 185.78 83.4095 186.45 83.8095C187.44 84.4195 188.61 85.0595 188.47 86.3795C188.31 87.9195 188.15 89.5395 186.34 90.3195C184.47 91.1295 182.67 91.7095 180.62 91.0095C177.79 90.0295 175.95 87.4595 176.17 84.4395C176.26 83.2695 176.38 82.0795 176.69 80.9195C177.58 77.5895 179.97 75.5795 182.78 73.9595C183.7 73.4295 184.7 73.0295 185.83 73.0495C186.29 73.0595 186.9 72.9995 186.68 72.0495C186.32 70.4895 188.1 69.0895 189.73 68.9295C190.11 68.8895 190.33 69.1995 190.16 69.5695C189.9 70.1495 190.27 70.4695 190.6 70.7995C192.33 72.4695 194.37 72.8895 196.71 72.4295C200.37 71.7095 202.53 69.2295 204.24 66.2295C205.43 64.1395 206.29 61.9295 205.98 59.4495C205.59 56.3595 205.19 53.2695 202.14 51.4295C201.74 51.1895 201.44 50.7795 201.11 50.4295C200.77 50.0595 200.34 49.9095 199.93 50.1595C199.45 50.4495 199.83 50.8795 199.95 51.2195C200.34 52.3095 201.44 52.9895 201.73 54.1495C202.19 56.0295 202.3 57.8995 201.57 59.7395C201.3 60.4195 200.89 60.6895 200.24 60.0395C199.41 59.1995 198.23 59.1295 197.17 58.7995C196.49 58.5895 196.63 59.1495 196.58 59.4995C196.29 61.8695 195.34 63.9195 193.59 65.5795C192.99 66.1495 192.39 66.5895 191.48 66.3295C191.23 66.2595 190.91 66.2995 190.66 66.3995C187.97 67.4995 184.78 64.9895 184.34 62.7195C184.19 61.9295 184.38 61.2695 184.91 60.7695C185.4 60.3395 186.01 60.1495 186.66 60.8395ZM208.6 14.7295C207.91 15.3695 207.7 15.9895 207.1 16.3195C204.55 17.6895 202.01 17.6395 199.48 16.3595C197.42 15.3195 195.26 14.6895 192.97 14.7595C190.93 14.8195 188.92 15.1395 187.78 17.2395C186.98 18.7195 187.87 20.5095 189.49 20.7395C191.24 20.9795 192.97 21.0695 194.71 20.7495C194.92 20.7095 195.22 20.6595 195.27 20.9995C195.31 21.2495 195.09 21.3395 194.91 21.4095C193.95 21.8295 192.98 22.1995 191.92 21.8795C191.22 21.6695 190.54 21.7695 189.78 21.7595C190.43 22.9295 190.78 23.0495 191.9 23.6095C193.9 24.6195 195.82 24.3795 197.9 23.8495C199.47 23.4495 201.01 23.2295 202.58 22.6195C204.09 22.0295 205.25 21.2795 206.16 20.1395C207.34 18.6495 208.38 17.0495 208.6 14.7295ZM205.54 65.0595C205.16 65.8095 204.8 66.4595 204.48 67.1295C203.04 70.1995 200.55 71.9795 197.39 72.9795C196.57 73.2395 195.74 72.9895 194.96 73.2095C193.15 73.7195 189.64 71.7695 189.16 70.0595C186.9 71.2995 186.84 71.8495 188.8 73.4195C189.01 73.5895 189.13 73.7695 189.06 74.0295C188.94 74.4395 188.59 74.3495 188.38 74.2095C187.28 73.4495 186.13 73.9195 185.05 74.1395C182.46 74.6795 180.72 76.5295 178.97 78.3395C177.97 79.3795 177.57 80.6895 177.35 82.3295C177.86 81.7095 178.14 81.2095 178.56 80.8795C180.94 78.9995 183.87 78.3695 186.69 77.6795C189.2 77.0695 191.84 77.1295 194.31 76.1595C195.94 75.5195 197.57 74.8795 199 73.9095C199.91 73.2895 201.02 72.9695 201.78 72.0995C202.94 70.7795 203.9 69.3195 204.74 67.7995C205.18 67.0195 205.79 66.1895 205.54 65.0595ZM163.67 16.6595C163.91 16.3495 164.92 16.9895 164.57 15.9795C164.13 14.7095 161.48 13.3395 160.18 14.4595C159.34 15.1795 159 16.5595 159.46 17.8395C159.87 18.9995 160.95 19.0295 161.87 19.1495C162.51 19.2295 163 18.6295 163.51 18.2495C164.55 17.4795 164.54 17.4795 163.67 16.6595Z" fill="#AB7B88"/>
<path d="M150.31 33.2695C150.7 35.2695 150.14 36.7595 148.99 37.0395C149.61 35.9095 149.87 34.7195 150.31 33.2695Z" fill="#AB7B88"/>
</g>
<defs>
<clipPath id="clip0_995_13985">
<rect width="248.6" height="98.08" fill="white" transform="translate(0.700012)"/>
</clipPath>
</defs>
</svg>
