<svg width="704" height="168" viewBox="0 0 704 168" fill="none" xmlns="http://www.w3.org/2000/svg">
<rect x="1.5" y="1.5" width="701" height="165" rx="9.5" fill="#732339"/>
<rect x="1.5" y="1.5" width="701" height="165" rx="9.5" stroke="#E3D0BF" stroke-width="3"/>
<path d="M60.7824 45.144C59.5344 45.144 58.4604 44.922 57.5604 44.478C56.6724 44.034 55.9824 43.416 55.4904 42.624C55.0104 41.82 54.7704 40.89 54.7704 39.834C54.7704 38.79 54.9504 37.812 55.3104 36.9C55.6704 35.976 56.1864 35.166 56.8584 34.47C57.5424 33.774 58.3584 33.234 59.3064 32.85C60.2664 32.454 61.3404 32.256 62.5284 32.256C63.6324 32.256 64.5924 32.424 65.4084 32.76C66.2364 33.096 66.8964 33.576 67.3884 34.2L66.0924 35.298C65.6724 34.806 65.1564 34.446 64.5444 34.218C63.9444 33.978 63.2484 33.858 62.4564 33.858C61.5564 33.858 60.7464 34.014 60.0264 34.326C59.3064 34.626 58.6884 35.046 58.1724 35.586C57.6564 36.114 57.2604 36.738 56.9844 37.458C56.7084 38.166 56.5704 38.922 56.5704 39.726C56.5704 40.482 56.7324 41.148 57.0564 41.724C57.3924 42.288 57.8844 42.732 58.5324 43.056C59.1924 43.38 60.0084 43.542 60.9804 43.542C61.6884 43.542 62.3424 43.422 62.9424 43.182C63.5544 42.942 64.1304 42.594 64.6704 42.138L65.3724 43.578C64.7604 44.07 64.0524 44.454 63.2484 44.73C62.4564 45.006 61.6344 45.144 60.7824 45.144ZM63.7164 43.308L64.6344 38.628H66.3624L65.3724 43.578L63.7164 43.308ZM72.3467 45.108C71.5307 45.108 70.8407 44.94 70.2767 44.604C69.7247 44.268 69.3347 43.782 69.1067 43.146C68.8787 42.498 68.8547 41.718 69.0347 40.806L70.0967 35.46H71.8247L70.7627 40.824C70.5947 41.676 70.6787 42.348 71.0147 42.84C71.3627 43.32 71.9747 43.56 72.8507 43.56C73.7507 43.56 74.5067 43.308 75.1187 42.804C75.7307 42.3 76.1387 41.538 76.3427 40.518L77.3507 35.46H79.0787L77.1887 45H75.5327L76.0727 42.264L76.3787 43.002C75.9347 43.722 75.3587 44.256 74.6507 44.604C73.9547 44.94 73.1867 45.108 72.3467 45.108ZM85.0324 45.108C84.0964 45.108 83.2864 44.94 82.6024 44.604C81.9184 44.256 81.3904 43.776 81.0184 43.164C80.6464 42.54 80.4604 41.808 80.4604 40.968C80.4604 39.888 80.6944 38.928 81.1624 38.088C81.6304 37.248 82.2664 36.588 83.0704 36.108C83.8864 35.616 84.8104 35.37 85.8424 35.37C86.7064 35.37 87.4564 35.538 88.0924 35.874C88.7284 36.198 89.2204 36.666 89.5684 37.278C89.9284 37.89 90.1084 38.628 90.1084 39.492C90.1084 39.708 90.0964 39.93 90.0724 40.158C90.0484 40.374 90.0184 40.578 89.9824 40.77H81.7204L81.9364 39.51H89.1544L88.4524 39.942C88.5604 39.27 88.5124 38.706 88.3084 38.25C88.1044 37.782 87.7804 37.428 87.3364 37.188C86.9044 36.936 86.3824 36.81 85.7704 36.81C85.0504 36.81 84.4144 36.984 83.8624 37.332C83.3224 37.668 82.9024 38.142 82.6024 38.754C82.3024 39.354 82.1524 40.062 82.1524 40.878C82.1524 41.742 82.3984 42.414 82.8904 42.894C83.3944 43.362 84.1564 43.596 85.1764 43.596C85.7764 43.596 86.3344 43.5 86.8504 43.308C87.3664 43.104 87.7924 42.834 88.1284 42.498L88.8664 43.74C88.4104 44.184 87.8404 44.526 87.1564 44.766C86.4724 44.994 85.7644 45.108 85.0324 45.108ZM94.4883 45.108C93.6843 45.108 92.9223 45.006 92.2023 44.802C91.4943 44.586 90.9483 44.322 90.5643 44.01L91.3383 42.642C91.7103 42.93 92.1903 43.164 92.7783 43.344C93.3783 43.524 94.0023 43.614 94.6503 43.614C95.4783 43.614 96.1023 43.488 96.5223 43.236C96.9423 42.984 97.1523 42.642 97.1523 42.21C97.1523 41.898 97.0263 41.664 96.7743 41.508C96.5223 41.34 96.1923 41.214 95.7843 41.13C95.3883 41.034 94.9623 40.944 94.5063 40.86C94.0503 40.764 93.6243 40.632 93.2283 40.464C92.8323 40.296 92.5023 40.056 92.2383 39.744C91.9863 39.42 91.8603 38.994 91.8603 38.466C91.8603 37.83 92.0403 37.284 92.4003 36.828C92.7603 36.36 93.2643 36 93.9123 35.748C94.5603 35.496 95.3163 35.37 96.1803 35.37C96.8043 35.37 97.4163 35.448 98.0163 35.604C98.6283 35.748 99.1263 35.958 99.5103 36.234L98.8263 37.602C98.4303 37.326 97.9863 37.134 97.4943 37.026C97.0023 36.906 96.5103 36.846 96.0183 36.846C95.2143 36.846 94.6083 36.984 94.2003 37.26C93.7923 37.524 93.5883 37.86 93.5883 38.268C93.5883 38.58 93.7143 38.826 93.9663 39.006C94.2183 39.174 94.5423 39.306 94.9383 39.402C95.3463 39.498 95.7723 39.594 96.2163 39.69C96.6723 39.774 97.0983 39.9 97.4943 40.068C97.9023 40.224 98.2323 40.458 98.4843 40.77C98.7363 41.07 98.8623 41.484 98.8623 42.012C98.8623 42.672 98.6763 43.236 98.3043 43.704C97.9443 44.16 97.4343 44.508 96.7743 44.748C96.1143 44.988 95.3523 45.108 94.4883 45.108ZM103.776 45.108C103.2 45.108 102.702 44.982 102.282 44.73C101.874 44.478 101.58 44.118 101.4 43.65C101.232 43.182 101.208 42.63 101.328 41.994L103.056 33.372H104.784L103.056 41.958C102.972 42.474 103.02 42.888 103.2 43.2C103.392 43.5 103.746 43.65 104.262 43.65C104.502 43.65 104.742 43.614 104.982 43.542C105.222 43.458 105.438 43.344 105.63 43.2L105.99 44.514C105.666 44.742 105.306 44.898 104.91 44.982C104.526 45.066 104.148 45.108 103.776 45.108ZM100.734 36.882L101.004 35.46H107.106L106.818 36.882H100.734ZM110.959 45.108C110.155 45.108 109.393 45.006 108.673 44.802C107.965 44.586 107.419 44.322 107.035 44.01L107.809 42.642C108.181 42.93 108.661 43.164 109.249 43.344C109.849 43.524 110.473 43.614 111.121 43.614C111.949 43.614 112.573 43.488 112.993 43.236C113.413 42.984 113.623 42.642 113.623 42.21C113.623 41.898 113.497 41.664 113.245 41.508C112.993 41.34 112.663 41.214 112.255 41.13C111.859 41.034 111.433 40.944 110.977 40.86C110.521 40.764 110.095 40.632 109.699 40.464C109.303 40.296 108.973 40.056 108.709 39.744C108.457 39.42 108.331 38.994 108.331 38.466C108.331 37.83 108.511 37.284 108.871 36.828C109.231 36.36 109.735 36 110.383 35.748C111.031 35.496 111.787 35.37 112.651 35.37C113.275 35.37 113.887 35.448 114.487 35.604C115.099 35.748 115.597 35.958 115.981 36.234L115.297 37.602C114.901 37.326 114.457 37.134 113.965 37.026C113.473 36.906 112.981 36.846 112.489 36.846C111.685 36.846 111.079 36.984 110.671 37.26C110.263 37.524 110.059 37.86 110.059 38.268C110.059 38.58 110.185 38.826 110.437 39.006C110.689 39.174 111.013 39.306 111.409 39.402C111.817 39.498 112.243 39.594 112.687 39.69C113.143 39.774 113.569 39.9 113.965 40.068C114.373 40.224 114.703 40.458 114.955 40.77C115.207 41.07 115.333 41.484 115.333 42.012C115.333 42.672 115.147 43.236 114.775 43.704C114.415 44.16 113.905 44.508 113.245 44.748C112.585 44.988 111.823 45.108 110.959 45.108ZM126.269 45.108C125.357 45.108 124.565 44.94 123.893 44.604C123.233 44.256 122.717 43.776 122.345 43.164C121.973 42.54 121.787 41.814 121.787 40.986C121.787 39.906 122.027 38.946 122.507 38.106C122.987 37.254 123.647 36.588 124.487 36.108C125.339 35.616 126.305 35.37 127.385 35.37C128.285 35.37 129.071 35.538 129.743 35.874C130.415 36.21 130.931 36.684 131.291 37.296C131.663 37.908 131.849 38.634 131.849 39.474C131.849 40.554 131.609 41.52 131.129 42.372C130.649 43.212 129.989 43.878 129.149 44.37C128.321 44.862 127.361 45.108 126.269 45.108ZM126.377 43.596C127.097 43.596 127.739 43.422 128.303 43.074C128.867 42.726 129.305 42.252 129.617 41.652C129.941 41.04 130.103 40.344 130.103 39.564C130.103 38.724 129.857 38.07 129.365 37.602C128.873 37.122 128.171 36.882 127.259 36.882C126.551 36.882 125.915 37.056 125.351 37.404C124.787 37.74 124.343 38.214 124.019 38.826C123.695 39.426 123.533 40.122 123.533 40.914C123.533 41.742 123.779 42.396 124.271 42.876C124.763 43.356 125.465 43.596 126.377 43.596ZM133.464 45L135.57 34.56C135.762 33.6 136.152 32.856 136.74 32.328C137.34 31.8 138.126 31.536 139.098 31.536C139.494 31.536 139.866 31.59 140.214 31.698C140.574 31.794 140.868 31.938 141.096 32.13L140.376 33.408C140.04 33.108 139.614 32.958 139.098 32.958C138.582 32.958 138.168 33.102 137.856 33.39C137.556 33.678 137.346 34.116 137.226 34.704L136.956 35.946L136.866 36.666L135.192 45H133.464ZM133.464 36.882L133.734 35.46H139.836L139.548 36.882H133.464ZM147.686 45.108C147.11 45.108 146.612 44.982 146.192 44.73C145.784 44.478 145.49 44.118 145.31 43.65C145.142 43.182 145.118 42.63 145.238 41.994L146.966 33.372H148.694L146.966 41.958C146.882 42.474 146.93 42.888 147.11 43.2C147.302 43.5 147.656 43.65 148.172 43.65C148.412 43.65 148.652 43.614 148.892 43.542C149.132 43.458 149.348 43.344 149.54 43.2L149.9 44.514C149.576 44.742 149.216 44.898 148.82 44.982C148.436 45.066 148.058 45.108 147.686 45.108ZM144.644 36.882L144.914 35.46H151.016L150.728 36.882H144.644ZM158.631 35.37C159.471 35.37 160.173 35.538 160.737 35.874C161.301 36.21 161.691 36.702 161.907 37.35C162.135 37.986 162.159 38.754 161.979 39.654L160.917 45H159.189L160.251 39.654C160.431 38.79 160.347 38.118 159.999 37.638C159.651 37.158 159.027 36.918 158.127 36.918C157.203 36.918 156.435 37.17 155.823 37.674C155.211 38.166 154.803 38.928 154.599 39.96L153.591 45H151.863L154.527 31.644H156.255L154.941 38.196L154.545 37.458C155.001 36.738 155.577 36.21 156.273 35.874C156.981 35.538 157.767 35.37 158.631 35.37ZM168.669 45.108C167.733 45.108 166.923 44.94 166.239 44.604C165.555 44.256 165.027 43.776 164.655 43.164C164.283 42.54 164.097 41.808 164.097 40.968C164.097 39.888 164.331 38.928 164.799 38.088C165.267 37.248 165.903 36.588 166.707 36.108C167.523 35.616 168.447 35.37 169.479 35.37C170.343 35.37 171.093 35.538 171.729 35.874C172.365 36.198 172.857 36.666 173.205 37.278C173.565 37.89 173.745 38.628 173.745 39.492C173.745 39.708 173.733 39.93 173.709 40.158C173.685 40.374 173.655 40.578 173.619 40.77H165.357L165.573 39.51H172.791L172.089 39.942C172.197 39.27 172.149 38.706 171.945 38.25C171.741 37.782 171.417 37.428 170.973 37.188C170.541 36.936 170.019 36.81 169.407 36.81C168.687 36.81 168.051 36.984 167.499 37.332C166.959 37.668 166.539 38.142 166.239 38.754C165.939 39.354 165.789 40.062 165.789 40.878C165.789 41.742 166.035 42.414 166.527 42.894C167.031 43.362 167.793 43.596 168.813 43.596C169.413 43.596 169.971 43.5 170.487 43.308C171.003 43.104 171.429 42.834 171.765 42.498L172.503 43.74C172.047 44.184 171.477 44.526 170.793 44.766C170.109 44.994 169.401 45.108 168.669 45.108ZM180.187 45L182.707 32.4H184.183L190.231 42.804L189.691 42.732L191.743 32.4H193.543L191.023 45H189.547L183.499 34.596L184.039 34.668L181.987 45H180.187ZM199.114 45.108C198.178 45.108 197.368 44.94 196.684 44.604C196 44.256 195.472 43.776 195.1 43.164C194.728 42.54 194.542 41.808 194.542 40.968C194.542 39.888 194.776 38.928 195.244 38.088C195.712 37.248 196.348 36.588 197.152 36.108C197.968 35.616 198.892 35.37 199.924 35.37C200.788 35.37 201.538 35.538 202.174 35.874C202.81 36.198 203.302 36.666 203.65 37.278C204.01 37.89 204.19 38.628 204.19 39.492C204.19 39.708 204.178 39.93 204.154 40.158C204.13 40.374 204.1 40.578 204.064 40.77H195.802L196.018 39.51H203.236L202.534 39.942C202.642 39.27 202.594 38.706 202.39 38.25C202.186 37.782 201.862 37.428 201.418 37.188C200.986 36.936 200.464 36.81 199.852 36.81C199.132 36.81 198.496 36.984 197.944 37.332C197.404 37.668 196.984 38.142 196.684 38.754C196.384 39.354 196.234 40.062 196.234 40.878C196.234 41.742 196.48 42.414 196.972 42.894C197.476 43.362 198.238 43.596 199.258 43.596C199.858 43.596 200.416 43.5 200.932 43.308C201.448 43.104 201.874 42.834 202.21 42.498L202.948 43.74C202.492 44.184 201.922 44.526 201.238 44.766C200.554 44.994 199.846 45.108 199.114 45.108ZM207.513 45L205.695 35.46H207.261L208.863 44.1H208.053L212.985 35.46H214.461L216.099 44.1H215.289L220.167 35.46H221.805L216.459 45H214.767L213.165 37.116H213.687L209.169 45H207.513ZM226.681 45L229.201 32.4H233.899C235.375 32.4 236.515 32.724 237.319 33.372C238.135 34.02 238.543 34.926 238.543 36.09C238.543 37.146 238.303 38.052 237.823 38.808C237.355 39.564 236.677 40.146 235.789 40.554C234.901 40.95 233.845 41.148 232.621 41.148H228.499L229.417 40.32L228.499 45H226.681ZM235.159 45L232.567 40.428H234.493L237.067 45H235.159ZM229.381 40.518L228.769 39.618H232.675C233.959 39.618 234.955 39.336 235.663 38.772C236.383 38.196 236.743 37.356 236.743 36.252C236.743 35.496 236.485 34.926 235.969 34.542C235.453 34.158 234.709 33.966 233.737 33.966H229.957L230.875 33.048L229.381 40.518ZM244.079 45.108C243.143 45.108 242.333 44.94 241.649 44.604C240.965 44.256 240.437 43.776 240.065 43.164C239.693 42.54 239.507 41.808 239.507 40.968C239.507 39.888 239.741 38.928 240.209 38.088C240.677 37.248 241.313 36.588 242.117 36.108C242.933 35.616 243.857 35.37 244.889 35.37C245.753 35.37 246.503 35.538 247.139 35.874C247.775 36.198 248.267 36.666 248.615 37.278C248.975 37.89 249.155 38.628 249.155 39.492C249.155 39.708 249.143 39.93 249.119 40.158C249.095 40.374 249.065 40.578 249.029 40.77H240.767L240.983 39.51H248.201L247.499 39.942C247.607 39.27 247.559 38.706 247.355 38.25C247.151 37.782 246.827 37.428 246.383 37.188C245.951 36.936 245.429 36.81 244.817 36.81C244.097 36.81 243.461 36.984 242.909 37.332C242.369 37.668 241.949 38.142 241.649 38.754C241.349 39.354 241.199 40.062 241.199 40.878C241.199 41.742 241.445 42.414 241.937 42.894C242.441 43.362 243.203 43.596 244.223 43.596C244.823 43.596 245.381 43.5 245.897 43.308C246.413 43.104 246.839 42.834 247.175 42.498L247.913 43.74C247.457 44.184 246.887 44.526 246.203 44.766C245.519 44.994 244.811 45.108 244.079 45.108ZM250.529 45L252.419 35.46H254.147L252.257 45H250.529ZM253.787 33.624C253.463 33.624 253.199 33.522 252.995 33.318C252.803 33.114 252.707 32.868 252.707 32.58C252.707 32.244 252.821 31.962 253.049 31.734C253.277 31.494 253.577 31.374 253.949 31.374C254.261 31.374 254.519 31.476 254.723 31.68C254.939 31.872 255.047 32.106 255.047 32.382C255.047 32.754 254.933 33.054 254.705 33.282C254.477 33.51 254.171 33.624 253.787 33.624ZM258.832 45.108C258.256 45.108 257.758 44.982 257.338 44.73C256.93 44.478 256.636 44.118 256.456 43.65C256.288 43.182 256.264 42.63 256.384 41.994L258.112 33.372H259.84L258.112 41.958C258.028 42.474 258.076 42.888 258.256 43.2C258.448 43.5 258.802 43.65 259.318 43.65C259.558 43.65 259.798 43.614 260.038 43.542C260.278 43.458 260.494 43.344 260.686 43.2L261.046 44.514C260.722 44.742 260.362 44.898 259.966 44.982C259.582 45.066 259.204 45.108 258.832 45.108ZM255.79 36.882L256.06 35.46H262.162L261.874 36.882H255.79ZM267.247 45.108C266.311 45.108 265.501 44.94 264.817 44.604C264.133 44.256 263.605 43.776 263.233 43.164C262.861 42.54 262.675 41.808 262.675 40.968C262.675 39.888 262.909 38.928 263.377 38.088C263.845 37.248 264.481 36.588 265.285 36.108C266.101 35.616 267.025 35.37 268.057 35.37C268.921 35.37 269.671 35.538 270.307 35.874C270.943 36.198 271.435 36.666 271.783 37.278C272.143 37.89 272.323 38.628 272.323 39.492C272.323 39.708 272.311 39.93 272.287 40.158C272.263 40.374 272.233 40.578 272.197 40.77H263.935L264.151 39.51H271.369L270.667 39.942C270.775 39.27 270.727 38.706 270.523 38.25C270.319 37.782 269.995 37.428 269.551 37.188C269.119 36.936 268.597 36.81 267.985 36.81C267.265 36.81 266.629 36.984 266.077 37.332C265.537 37.668 265.117 38.142 264.817 38.754C264.517 39.354 264.367 40.062 264.367 40.878C264.367 41.742 264.613 42.414 265.105 42.894C265.609 43.362 266.371 43.596 267.391 43.596C267.991 43.596 268.549 43.5 269.065 43.308C269.581 43.104 270.007 42.834 270.343 42.498L271.081 43.74C270.625 44.184 270.055 44.526 269.371 44.766C268.687 44.994 267.979 45.108 267.247 45.108ZM273.697 45L275.587 35.46H277.243L276.703 38.232L276.523 37.548C276.967 36.744 277.531 36.18 278.215 35.856C278.899 35.532 279.745 35.37 280.753 35.37L280.429 37.044C280.357 37.032 280.285 37.026 280.213 37.026C280.141 37.026 280.063 37.026 279.979 37.026C279.031 37.026 278.245 37.284 277.621 37.8C277.009 38.316 276.595 39.126 276.379 40.23L275.425 45H273.697ZM297.704 32.4H299.504L296.984 45H295.184L297.704 32.4ZM287.948 45H286.148L288.668 32.4H290.468L287.948 45ZM296.48 39.384H288.92L289.226 37.818H296.786L296.48 39.384ZM304.985 45.108C304.073 45.108 303.281 44.94 302.609 44.604C301.949 44.256 301.433 43.776 301.061 43.164C300.689 42.54 300.503 41.814 300.503 40.986C300.503 39.906 300.743 38.946 301.223 38.106C301.703 37.254 302.363 36.588 303.203 36.108C304.055 35.616 305.021 35.37 306.101 35.37C307.001 35.37 307.787 35.538 308.459 35.874C309.131 36.21 309.647 36.684 310.007 37.296C310.379 37.908 310.565 38.634 310.565 39.474C310.565 40.554 310.325 41.52 309.845 42.372C309.365 43.212 308.705 43.878 307.865 44.37C307.037 44.862 306.077 45.108 304.985 45.108ZM305.093 43.596C305.813 43.596 306.455 43.422 307.019 43.074C307.583 42.726 308.021 42.252 308.333 41.652C308.657 41.04 308.819 40.344 308.819 39.564C308.819 38.724 308.573 38.07 308.081 37.602C307.589 37.122 306.887 36.882 305.975 36.882C305.267 36.882 304.631 37.056 304.067 37.404C303.503 37.74 303.059 38.214 302.735 38.826C302.411 39.426 302.249 40.122 302.249 40.914C302.249 41.742 302.495 42.396 302.987 42.876C303.479 43.356 304.181 43.596 305.093 43.596ZM315.223 45.108C314.647 45.108 314.149 44.982 313.729 44.73C313.321 44.478 313.027 44.118 312.847 43.65C312.679 43.182 312.655 42.63 312.775 41.994L314.503 33.372H316.231L314.503 41.958C314.419 42.474 314.467 42.888 314.647 43.2C314.839 43.5 315.193 43.65 315.709 43.65C315.949 43.65 316.189 43.614 316.429 43.542C316.669 43.458 316.885 43.344 317.077 43.2L317.437 44.514C317.113 44.742 316.753 44.898 316.357 44.982C315.973 45.066 315.595 45.108 315.223 45.108ZM312.181 36.882L312.451 35.46H318.553L318.265 36.882H312.181ZM323.638 45.108C322.702 45.108 321.892 44.94 321.208 44.604C320.524 44.256 319.996 43.776 319.624 43.164C319.252 42.54 319.066 41.808 319.066 40.968C319.066 39.888 319.3 38.928 319.768 38.088C320.236 37.248 320.872 36.588 321.676 36.108C322.492 35.616 323.416 35.37 324.448 35.37C325.312 35.37 326.062 35.538 326.698 35.874C327.334 36.198 327.826 36.666 328.174 37.278C328.534 37.89 328.714 38.628 328.714 39.492C328.714 39.708 328.702 39.93 328.678 40.158C328.654 40.374 328.624 40.578 328.588 40.77H320.326L320.542 39.51H327.76L327.058 39.942C327.166 39.27 327.118 38.706 326.914 38.25C326.71 37.782 326.386 37.428 325.942 37.188C325.51 36.936 324.988 36.81 324.376 36.81C323.656 36.81 323.02 36.984 322.468 37.332C321.928 37.668 321.508 38.142 321.208 38.754C320.908 39.354 320.758 40.062 320.758 40.878C320.758 41.742 321.004 42.414 321.496 42.894C322 43.362 322.762 43.596 323.782 43.596C324.382 43.596 324.94 43.5 325.456 43.308C325.972 43.104 326.398 42.834 326.734 42.498L327.472 43.74C327.016 44.184 326.446 44.526 325.762 44.766C325.078 44.994 324.37 45.108 323.638 45.108ZM330.088 45L332.752 31.644H334.48L331.816 45H330.088ZM344.467 45.108C343.543 45.108 342.739 44.94 342.055 44.604C341.383 44.256 340.861 43.776 340.489 43.164C340.117 42.54 339.931 41.814 339.931 40.986C339.931 39.906 340.171 38.946 340.651 38.106C341.131 37.254 341.797 36.588 342.649 36.108C343.501 35.616 344.467 35.37 345.547 35.37C346.471 35.37 347.263 35.544 347.923 35.892C348.583 36.228 349.099 36.744 349.471 37.44L348.013 38.25C347.773 37.782 347.431 37.44 346.987 37.224C346.555 36.996 346.033 36.882 345.421 36.882C344.701 36.882 344.059 37.056 343.495 37.404C342.931 37.74 342.487 38.214 342.163 38.826C341.839 39.426 341.677 40.122 341.677 40.914C341.677 41.742 341.923 42.396 342.415 42.876C342.919 43.356 343.627 43.596 344.539 43.596C345.103 43.596 345.631 43.482 346.123 43.254C346.627 43.026 347.047 42.69 347.383 42.246L348.643 43.146C348.211 43.758 347.623 44.238 346.879 44.586C346.135 44.934 345.331 45.108 344.467 45.108ZM354.286 45.108C353.482 45.108 352.762 44.946 352.126 44.622C351.49 44.286 350.986 43.812 350.614 43.2C350.254 42.588 350.074 41.85 350.074 40.986C350.074 40.17 350.206 39.42 350.47 38.736C350.746 38.052 351.124 37.458 351.604 36.954C352.096 36.45 352.672 36.06 353.332 35.784C353.992 35.508 354.706 35.37 355.474 35.37C356.302 35.37 357.004 35.514 357.58 35.802C358.156 36.09 358.6 36.516 358.912 37.08C359.224 37.632 359.38 38.31 359.38 39.114C359.38 40.29 359.176 41.334 358.768 42.246C358.36 43.146 357.772 43.848 357.004 44.352C356.248 44.856 355.342 45.108 354.286 45.108ZM354.664 43.596C355.384 43.596 356.026 43.422 356.59 43.074C357.154 42.726 357.592 42.252 357.904 41.652C358.228 41.04 358.39 40.344 358.39 39.564C358.39 38.724 358.144 38.07 357.652 37.602C357.16 37.122 356.458 36.882 355.546 36.882C354.838 36.882 354.202 37.056 353.638 37.404C353.074 37.74 352.63 38.214 352.306 38.826C351.982 39.426 351.82 40.122 351.82 40.914C351.82 41.742 352.066 42.396 352.558 42.876C353.05 43.356 353.752 43.596 354.664 43.596ZM357.418 45L357.922 42.534L358.498 40.32L358.732 38.052L359.236 35.46H360.964L359.074 45H357.418ZM369.129 35.37C369.969 35.37 370.671 35.538 371.235 35.874C371.799 36.21 372.189 36.702 372.405 37.35C372.633 37.986 372.657 38.754 372.477 39.654L371.415 45H369.687L370.749 39.654C370.929 38.79 370.845 38.118 370.497 37.638C370.149 37.158 369.525 36.918 368.625 36.918C367.701 36.918 366.933 37.17 366.321 37.674C365.709 38.166 365.301 38.928 365.097 39.96L364.089 45H362.361L364.251 35.46H365.907L365.367 38.196L365.043 37.458C365.499 36.738 366.075 36.21 366.771 35.874C367.479 35.538 368.265 35.37 369.129 35.37ZM386.215 35.37C387.055 35.37 387.757 35.538 388.321 35.874C388.885 36.21 389.275 36.702 389.491 37.35C389.719 37.986 389.743 38.754 389.563 39.654L388.501 45H386.773L387.835 39.654C388.015 38.79 387.931 38.118 387.583 37.638C387.235 37.158 386.611 36.918 385.711 36.918C384.787 36.918 384.019 37.17 383.407 37.674C382.795 38.166 382.387 38.928 382.183 39.96L381.175 45H379.447L382.111 31.644H383.839L382.525 38.196L382.129 37.458C382.585 36.738 383.161 36.21 383.857 35.874C384.565 35.538 385.351 35.37 386.215 35.37ZM395.893 45.108C395.089 45.108 394.369 44.946 393.733 44.622C393.097 44.286 392.593 43.812 392.221 43.2C391.861 42.588 391.681 41.85 391.681 40.986C391.681 40.17 391.813 39.42 392.077 38.736C392.353 38.052 392.731 37.458 393.211 36.954C393.703 36.45 394.279 36.06 394.939 35.784C395.599 35.508 396.313 35.37 397.081 35.37C397.909 35.37 398.611 35.514 399.187 35.802C399.763 36.09 400.207 36.516 400.519 37.08C400.831 37.632 400.987 38.31 400.987 39.114C400.987 40.29 400.783 41.334 400.375 42.246C399.967 43.146 399.379 43.848 398.611 44.352C397.855 44.856 396.949 45.108 395.893 45.108ZM396.271 43.596C396.991 43.596 397.633 43.422 398.197 43.074C398.761 42.726 399.199 42.252 399.511 41.652C399.835 41.04 399.997 40.344 399.997 39.564C399.997 38.724 399.751 38.07 399.259 37.602C398.767 37.122 398.065 36.882 397.153 36.882C396.445 36.882 395.809 37.056 395.245 37.404C394.681 37.74 394.237 38.214 393.913 38.826C393.589 39.426 393.427 40.122 393.427 40.914C393.427 41.742 393.673 42.396 394.165 42.876C394.657 43.356 395.359 43.596 396.271 43.596ZM399.025 45L399.529 42.534L400.105 40.32L400.339 38.052L400.843 35.46H402.571L400.681 45H399.025ZM406.471 45L404.185 35.46H405.913L407.929 44.1H407.065L412.555 35.46H414.301L408.235 45H406.471ZM418.314 45.108C417.378 45.108 416.568 44.94 415.884 44.604C415.2 44.256 414.672 43.776 414.3 43.164C413.928 42.54 413.742 41.808 413.742 40.968C413.742 39.888 413.976 38.928 414.444 38.088C414.912 37.248 415.548 36.588 416.352 36.108C417.168 35.616 418.092 35.37 419.124 35.37C419.988 35.37 420.738 35.538 421.374 35.874C422.01 36.198 422.502 36.666 422.85 37.278C423.21 37.89 423.39 38.628 423.39 39.492C423.39 39.708 423.378 39.93 423.354 40.158C423.33 40.374 423.3 40.578 423.264 40.77H415.002L415.218 39.51H422.436L421.734 39.942C421.842 39.27 421.794 38.706 421.59 38.25C421.386 37.782 421.062 37.428 420.618 37.188C420.186 36.936 419.664 36.81 419.052 36.81C418.332 36.81 417.696 36.984 417.144 37.332C416.604 37.668 416.184 38.142 415.884 38.754C415.584 39.354 415.434 40.062 415.434 40.878C415.434 41.742 415.68 42.414 416.172 42.894C416.676 43.362 417.438 43.596 418.458 43.596C419.058 43.596 419.616 43.5 420.132 43.308C420.648 43.104 421.074 42.834 421.41 42.498L422.148 43.74C421.692 44.184 421.122 44.526 420.438 44.766C419.754 44.994 419.046 45.108 418.314 45.108ZM429.598 45L432.262 31.644H433.99L431.326 45H429.598ZM438.675 45.108C437.859 45.108 437.169 44.94 436.605 44.604C436.053 44.268 435.663 43.782 435.435 43.146C435.207 42.498 435.183 41.718 435.363 40.806L436.425 35.46H438.153L437.091 40.824C436.923 41.676 437.007 42.348 437.343 42.84C437.691 43.32 438.303 43.56 439.179 43.56C440.079 43.56 440.835 43.308 441.447 42.804C442.059 42.3 442.467 41.538 442.671 40.518L443.679 35.46H445.407L443.517 45H441.861L442.401 42.264L442.707 43.002C442.263 43.722 441.687 44.256 440.979 44.604C440.283 44.94 439.515 45.108 438.675 45.108ZM453.574 35.37C454.414 35.37 455.116 35.538 455.68 35.874C456.244 36.21 456.634 36.702 456.85 37.35C457.078 37.986 457.102 38.754 456.922 39.654L455.86 45H454.132L455.194 39.654C455.374 38.79 455.29 38.118 454.942 37.638C454.594 37.158 453.97 36.918 453.07 36.918C452.146 36.918 451.378 37.17 450.766 37.674C450.154 38.166 449.746 38.928 449.542 39.96L448.534 45H446.806L448.696 35.46H450.352L449.812 38.196L449.488 37.458C449.944 36.738 450.52 36.21 451.216 35.874C451.924 35.538 452.71 35.37 453.574 35.37ZM463.576 45.108C462.652 45.108 461.848 44.94 461.164 44.604C460.492 44.256 459.97 43.776 459.598 43.164C459.226 42.54 459.04 41.814 459.04 40.986C459.04 39.906 459.28 38.946 459.76 38.106C460.24 37.254 460.906 36.588 461.758 36.108C462.61 35.616 463.576 35.37 464.656 35.37C465.58 35.37 466.372 35.544 467.032 35.892C467.692 36.228 468.208 36.744 468.58 37.44L467.122 38.25C466.882 37.782 466.54 37.44 466.096 37.224C465.664 36.996 465.142 36.882 464.53 36.882C463.81 36.882 463.168 37.056 462.604 37.404C462.04 37.74 461.596 38.214 461.272 38.826C460.948 39.426 460.786 40.122 460.786 40.914C460.786 41.742 461.032 42.396 461.524 42.876C462.028 43.356 462.736 43.596 463.648 43.596C464.212 43.596 464.74 43.482 465.232 43.254C465.736 43.026 466.156 42.69 466.492 42.246L467.752 43.146C467.32 43.758 466.732 44.238 465.988 44.586C465.244 44.934 464.44 45.108 463.576 45.108ZM475.987 35.37C476.827 35.37 477.529 35.538 478.093 35.874C478.657 36.21 479.047 36.702 479.263 37.35C479.491 37.986 479.515 38.754 479.335 39.654L478.273 45H476.545L477.607 39.654C477.787 38.79 477.703 38.118 477.355 37.638C477.007 37.158 476.383 36.918 475.483 36.918C474.559 36.918 473.791 37.17 473.179 37.674C472.567 38.166 472.159 38.928 471.955 39.96L470.947 45H469.219L471.883 31.644H473.611L472.297 38.196L471.901 37.458C472.357 36.738 472.933 36.21 473.629 35.874C474.337 35.538 475.123 35.37 475.987 35.37ZM490.499 45.108C489.695 45.108 488.975 44.946 488.339 44.622C487.703 44.286 487.199 43.812 486.827 43.2C486.467 42.588 486.287 41.85 486.287 40.986C486.287 40.17 486.419 39.42 486.683 38.736C486.959 38.052 487.337 37.458 487.817 36.954C488.309 36.45 488.885 36.06 489.545 35.784C490.205 35.508 490.919 35.37 491.687 35.37C492.515 35.37 493.217 35.514 493.793 35.802C494.369 36.09 494.813 36.516 495.125 37.08C495.437 37.632 495.593 38.31 495.593 39.114C495.593 40.29 495.389 41.334 494.981 42.246C494.573 43.146 493.985 43.848 493.217 44.352C492.461 44.856 491.555 45.108 490.499 45.108ZM490.877 43.596C491.597 43.596 492.239 43.422 492.803 43.074C493.367 42.726 493.805 42.252 494.117 41.652C494.441 41.04 494.603 40.344 494.603 39.564C494.603 38.724 494.357 38.07 493.865 37.602C493.373 37.122 492.671 36.882 491.759 36.882C491.051 36.882 490.415 37.056 489.851 37.404C489.287 37.74 488.843 38.214 488.519 38.826C488.195 39.426 488.033 40.122 488.033 40.914C488.033 41.742 488.279 42.396 488.771 42.876C489.263 43.356 489.965 43.596 490.877 43.596ZM493.631 45L494.135 42.534L494.711 40.32L494.945 38.052L495.449 35.46H497.177L495.287 45H493.631ZM505.342 35.37C506.182 35.37 506.884 35.538 507.448 35.874C508.012 36.21 508.402 36.702 508.618 37.35C508.846 37.986 508.87 38.754 508.69 39.654L507.628 45H505.9L506.962 39.654C507.142 38.79 507.058 38.118 506.71 37.638C506.362 37.158 505.738 36.918 504.838 36.918C503.914 36.918 503.146 37.17 502.534 37.674C501.922 38.166 501.514 38.928 501.31 39.96L500.302 45H498.574L500.464 35.46H502.12L501.58 38.196L501.256 37.458C501.712 36.738 502.288 36.21 502.984 35.874C503.692 35.538 504.478 35.37 505.342 35.37ZM515.02 45.108C514.216 45.108 513.496 44.946 512.86 44.622C512.224 44.286 511.72 43.812 511.348 43.2C510.988 42.588 510.808 41.85 510.808 40.986C510.808 40.17 510.94 39.42 511.204 38.736C511.48 38.052 511.858 37.458 512.338 36.954C512.83 36.45 513.406 36.06 514.066 35.784C514.726 35.508 515.44 35.37 516.208 35.37C517.036 35.37 517.738 35.514 518.314 35.802C518.89 36.09 519.334 36.516 519.646 37.08C519.958 37.632 520.114 38.31 520.114 39.114C520.114 40.002 520 40.812 519.772 41.544C519.544 42.276 519.202 42.912 518.746 43.452C518.302 43.98 517.768 44.388 517.144 44.676C516.52 44.964 515.812 45.108 515.02 45.108ZM515.398 43.596C516.118 43.596 516.76 43.422 517.324 43.074C517.888 42.726 518.326 42.252 518.638 41.652C518.962 41.04 519.124 40.344 519.124 39.564C519.124 38.724 518.878 38.07 518.386 37.602C517.894 37.122 517.192 36.882 516.28 36.882C515.572 36.882 514.936 37.056 514.372 37.404C513.808 37.74 513.364 38.214 513.04 38.826C512.716 39.426 512.554 40.122 512.554 40.914C512.554 41.742 512.8 42.396 513.292 42.876C513.784 43.356 514.486 43.596 515.398 43.596ZM518.152 45L518.656 42.534L519.214 40.32L519.466 38.052L520.744 31.644H522.472L519.808 45H518.152ZM532.124 45.108C531.32 45.108 530.6 44.946 529.964 44.622C529.328 44.286 528.824 43.812 528.452 43.2C528.092 42.588 527.912 41.85 527.912 40.986C527.912 40.17 528.044 39.42 528.308 38.736C528.584 38.052 528.962 37.458 529.442 36.954C529.934 36.45 530.51 36.06 531.17 35.784C531.83 35.508 532.544 35.37 533.312 35.37C534.14 35.37 534.842 35.514 535.418 35.802C535.994 36.09 536.438 36.516 536.75 37.08C537.062 37.632 537.218 38.31 537.218 39.114C537.218 40.002 537.104 40.812 536.876 41.544C536.648 42.276 536.306 42.912 535.85 43.452C535.406 43.98 534.872 44.388 534.248 44.676C533.624 44.964 532.916 45.108 532.124 45.108ZM532.502 43.596C533.222 43.596 533.864 43.422 534.428 43.074C534.992 42.726 535.43 42.252 535.742 41.652C536.066 41.04 536.228 40.344 536.228 39.564C536.228 38.724 535.982 38.07 535.49 37.602C534.998 37.122 534.296 36.882 533.384 36.882C532.676 36.882 532.04 37.056 531.476 37.404C530.912 37.74 530.468 38.214 530.144 38.826C529.82 39.426 529.658 40.122 529.658 40.914C529.658 41.742 529.904 42.396 530.396 42.876C530.888 43.356 531.59 43.596 532.502 43.596ZM535.256 45L535.76 42.534L536.318 40.32L536.57 38.052L537.848 31.644H539.576L536.912 45H535.256ZM540.199 45L542.089 35.46H543.817L541.927 45H540.199ZM543.457 33.624C543.133 33.624 542.869 33.522 542.665 33.318C542.473 33.114 542.377 32.868 542.377 32.58C542.377 32.244 542.491 31.962 542.719 31.734C542.947 31.494 543.247 31.374 543.619 31.374C543.931 31.374 544.189 31.476 544.393 31.68C544.609 31.872 544.717 32.106 544.717 32.382C544.717 32.754 544.603 33.054 544.375 33.282C544.147 33.51 543.841 33.624 543.457 33.624ZM551.994 35.37C552.834 35.37 553.536 35.538 554.1 35.874C554.664 36.21 555.054 36.702 555.27 37.35C555.498 37.986 555.522 38.754 555.342 39.654L554.28 45H552.552L553.614 39.654C553.794 38.79 553.71 38.118 553.362 37.638C553.014 37.158 552.39 36.918 551.49 36.918C550.566 36.918 549.798 37.17 549.186 37.674C548.574 38.166 548.166 38.928 547.962 39.96L546.954 45H545.226L547.116 35.46H548.772L548.232 38.196L547.908 37.458C548.364 36.738 548.94 36.21 549.636 35.874C550.344 35.538 551.13 35.37 551.994 35.37ZM564.246 35.37C565.086 35.37 565.788 35.538 566.352 35.874C566.916 36.21 567.306 36.702 567.522 37.35C567.75 37.986 567.774 38.754 567.594 39.654L566.532 45H564.804L565.866 39.654C566.046 38.79 565.962 38.118 565.614 37.638C565.266 37.158 564.642 36.918 563.742 36.918C562.818 36.918 562.05 37.17 561.438 37.674C560.826 38.166 560.418 38.928 560.214 39.96L559.206 45H557.478L559.368 35.46H561.024L560.484 38.196L560.16 37.458C560.616 36.738 561.192 36.21 561.888 35.874C562.596 35.538 563.382 35.37 564.246 35.37ZM574.284 45.108C573.348 45.108 572.538 44.94 571.854 44.604C571.17 44.256 570.642 43.776 570.27 43.164C569.898 42.54 569.712 41.808 569.712 40.968C569.712 39.888 569.946 38.928 570.414 38.088C570.882 37.248 571.518 36.588 572.322 36.108C573.138 35.616 574.062 35.37 575.094 35.37C575.958 35.37 576.708 35.538 577.344 35.874C577.98 36.198 578.472 36.666 578.82 37.278C579.18 37.89 579.36 38.628 579.36 39.492C579.36 39.708 579.348 39.93 579.324 40.158C579.3 40.374 579.27 40.578 579.234 40.77H570.972L571.188 39.51H578.406L577.704 39.942C577.812 39.27 577.764 38.706 577.56 38.25C577.356 37.782 577.032 37.428 576.588 37.188C576.156 36.936 575.634 36.81 575.022 36.81C574.302 36.81 573.666 36.984 573.114 37.332C572.574 37.668 572.154 38.142 571.854 38.754C571.554 39.354 571.404 40.062 571.404 40.878C571.404 41.742 571.65 42.414 572.142 42.894C572.646 43.362 573.408 43.596 574.428 43.596C575.028 43.596 575.586 43.5 576.102 43.308C576.618 43.104 577.044 42.834 577.38 42.498L578.118 43.74C577.662 44.184 577.092 44.526 576.408 44.766C575.724 44.994 575.016 45.108 574.284 45.108ZM580.734 45L582.624 35.46H584.28L583.74 38.232L583.56 37.548C584.004 36.744 584.568 36.18 585.252 35.856C585.936 35.532 586.782 35.37 587.79 35.37L587.466 37.044C587.394 37.032 587.322 37.026 587.25 37.026C587.178 37.026 587.1 37.026 587.016 37.026C586.068 37.026 585.282 37.284 584.658 37.8C584.046 38.316 583.632 39.126 583.416 40.23L582.462 45H580.734ZM595.075 45L593.257 35.46H594.823L596.425 44.1H595.615L600.547 35.46H602.023L603.661 44.1H602.851L607.729 35.46H609.367L604.021 45H602.329L600.727 37.116H601.249L596.731 45H595.075ZM609.176 45L611.066 35.46H612.794L610.904 45H609.176ZM612.434 33.624C612.11 33.624 611.846 33.522 611.642 33.318C611.45 33.114 611.354 32.868 611.354 32.58C611.354 32.244 611.468 31.962 611.696 31.734C611.924 31.494 612.224 31.374 612.596 31.374C612.908 31.374 613.166 31.476 613.37 31.68C613.586 31.872 613.694 32.106 613.694 32.382C613.694 32.754 613.58 33.054 613.352 33.282C613.124 33.51 612.818 33.624 612.434 33.624ZM617.479 45.108C616.903 45.108 616.405 44.982 615.985 44.73C615.577 44.478 615.283 44.118 615.103 43.65C614.935 43.182 614.911 42.63 615.031 41.994L616.759 33.372H618.487L616.759 41.958C616.675 42.474 616.723 42.888 616.903 43.2C617.095 43.5 617.449 43.65 617.965 43.65C618.205 43.65 618.445 43.614 618.685 43.542C618.925 43.458 619.141 43.344 619.333 43.2L619.693 44.514C619.369 44.742 619.009 44.898 618.613 44.982C618.229 45.066 617.851 45.108 617.479 45.108ZM614.437 36.882L614.707 35.46H620.809L620.521 36.882H614.437ZM628.424 35.37C629.264 35.37 629.966 35.538 630.53 35.874C631.094 36.21 631.484 36.702 631.7 37.35C631.928 37.986 631.952 38.754 631.772 39.654L630.71 45H628.982L630.044 39.654C630.224 38.79 630.14 38.118 629.792 37.638C629.444 37.158 628.82 36.918 627.92 36.918C626.996 36.918 626.228 37.17 625.616 37.674C625.004 38.166 624.596 38.928 624.392 39.96L623.384 45H621.656L624.32 31.644H626.048L624.734 38.196L624.338 37.458C624.794 36.738 625.37 36.21 626.066 35.874C626.774 35.538 627.56 35.37 628.424 35.37ZM642.936 45.108C642.132 45.108 641.412 44.946 640.776 44.622C640.14 44.286 639.636 43.812 639.264 43.2C638.904 42.588 638.724 41.85 638.724 40.986C638.724 40.17 638.856 39.42 639.12 38.736C639.396 38.052 639.774 37.458 640.254 36.954C640.746 36.45 641.322 36.06 641.982 35.784C642.642 35.508 643.356 35.37 644.124 35.37C644.952 35.37 645.654 35.514 646.23 35.802C646.806 36.09 647.25 36.516 647.562 37.08C647.874 37.632 648.03 38.31 648.03 39.114C648.03 40.29 647.826 41.334 647.418 42.246C647.01 43.146 646.422 43.848 645.654 44.352C644.898 44.856 643.992 45.108 642.936 45.108ZM643.314 43.596C644.034 43.596 644.676 43.422 645.24 43.074C645.804 42.726 646.242 42.252 646.554 41.652C646.878 41.04 647.04 40.344 647.04 39.564C647.04 38.724 646.794 38.07 646.302 37.602C645.81 37.122 645.108 36.882 644.196 36.882C643.488 36.882 642.852 37.056 642.288 37.404C641.724 37.74 641.28 38.214 640.956 38.826C640.632 39.426 640.47 40.122 640.47 40.914C640.47 41.742 640.716 42.396 641.208 42.876C641.7 43.356 642.402 43.596 643.314 43.596ZM646.068 45L646.572 42.534L647.148 40.32L647.382 38.052L647.886 35.46H649.614L647.724 45H646.068Z" fill="#E3D0BF"/>
<path d="M214.197 98L219.277 72.56L221.557 75.2H213.157L214.197 70H226.277L220.677 98H214.197ZM238.101 98.48C236.021 98.48 234.221 98.0667 232.701 97.24C231.207 96.3867 230.047 95.1733 229.221 93.6C228.394 92 227.981 90.0933 227.981 87.88C227.981 85.3467 228.327 82.9733 229.021 80.76C229.741 78.5467 230.741 76.6 232.021 74.92C233.301 73.2133 234.834 71.8933 236.621 70.96C238.434 70 240.421 69.52 242.581 69.52C244.661 69.52 246.447 69.9467 247.941 70.8C249.461 71.6267 250.634 72.8267 251.461 74.4C252.287 75.9733 252.701 77.88 252.701 80.12C252.701 82.6533 252.341 85.0267 251.621 87.24C250.927 89.4533 249.941 91.4133 248.661 93.12C247.381 94.8 245.847 96.12 244.061 97.08C242.274 98.0133 240.287 98.48 238.101 98.48ZM238.701 93C239.927 93 241.007 92.6 241.941 91.8C242.874 90.9733 243.647 89.9067 244.261 88.6C244.901 87.2933 245.381 85.9067 245.701 84.44C246.021 82.9733 246.181 81.5867 246.181 80.28C246.181 78.44 245.807 77.1067 245.061 76.28C244.314 75.4267 243.287 75 241.981 75C240.754 75 239.674 75.4133 238.741 76.24C237.807 77.04 237.021 78.0933 236.381 79.4C235.767 80.7067 235.301 82.0933 234.981 83.56C234.661 85.0267 234.501 86.4133 234.501 87.72C234.501 89.5333 234.874 90.8667 235.621 91.72C236.394 92.5733 237.421 93 238.701 93ZM256.69 98L281.13 70H286.17L261.77 98H256.69ZM262.29 85.12C260.477 85.12 259.01 84.5733 257.89 83.48C256.77 82.36 256.21 80.8 256.21 78.8C256.21 77.0933 256.53 75.56 257.17 74.2C257.81 72.84 258.717 71.7467 259.89 70.92C261.09 70.0933 262.53 69.68 264.21 69.68C266.023 69.68 267.49 70.24 268.61 71.36C269.73 72.4533 270.29 74 270.29 76C270.29 77.68 269.97 79.2133 269.33 80.6C268.69 81.96 267.783 83.0533 266.61 83.88C265.437 84.7067 263.997 85.12 262.29 85.12ZM262.65 81.84C263.503 81.84 264.197 81.5467 264.73 80.96C265.263 80.3733 265.65 79.6533 265.89 78.8C266.13 77.92 266.25 77.0667 266.25 76.24C266.25 75.12 266.023 74.2933 265.57 73.76C265.143 73.2267 264.57 72.96 263.85 72.96C262.997 72.96 262.303 73.2533 261.77 73.84C261.237 74.4267 260.85 75.16 260.61 76.04C260.37 76.8933 260.25 77.7333 260.25 78.56C260.25 79.68 260.477 80.5067 260.93 81.04C261.383 81.5733 261.957 81.84 262.65 81.84ZM278.69 98.32C276.877 98.32 275.41 97.7733 274.29 96.68C273.17 95.5867 272.61 94.0267 272.61 92C272.61 90.32 272.917 88.8 273.53 87.44C274.17 86.0533 275.09 84.96 276.29 84.16C277.49 83.3333 278.917 82.92 280.57 82.92C282.41 82.92 283.89 83.48 285.01 84.6C286.13 85.6933 286.69 87.24 286.69 89.24C286.69 90.92 286.37 92.4533 285.73 93.84C285.09 95.2 284.17 96.2933 282.97 97.12C281.797 97.92 280.37 98.32 278.69 98.32ZM279.05 95.08C279.903 95.08 280.583 94.7867 281.09 94.2C281.623 93.6133 282.01 92.88 282.25 92C282.517 91.12 282.65 90.2667 282.65 89.44C282.65 88.32 282.423 87.4933 281.97 86.96C281.517 86.4267 280.943 86.16 280.25 86.16C279.397 86.16 278.703 86.4533 278.17 87.04C277.637 87.6267 277.237 88.36 276.97 89.24C276.73 90.12 276.61 90.9733 276.61 91.8C276.61 92.92 276.837 93.7467 277.29 94.28C277.743 94.8133 278.33 95.08 279.05 95.08ZM310.255 98.32C308.602 98.32 307.069 97.9467 305.655 97.2C304.242 96.4267 303.109 95.32 302.255 93.88C301.402 92.44 300.975 90.7067 300.975 88.68C300.975 86.8667 301.269 85.2 301.855 83.68C302.469 82.16 303.322 80.84 304.415 79.72C305.509 78.6 306.775 77.7333 308.215 77.12C309.655 76.48 311.202 76.16 312.855 76.16C314.535 76.16 315.989 76.4533 317.215 77.04C318.442 77.6267 319.389 78.5333 320.055 79.76C320.749 80.96 321.095 82.48 321.095 84.32C321.095 86.2933 320.855 88.1333 320.375 89.84C319.922 91.52 319.229 93 318.295 94.28C317.362 95.5333 316.215 96.52 314.855 97.24C313.522 97.96 311.989 98.32 310.255 98.32ZM312.175 93.16C313.402 93.16 314.482 92.8667 315.415 92.28C316.375 91.6667 317.122 90.84 317.655 89.8C318.215 88.7333 318.495 87.4933 318.495 86.08C318.495 84.6133 318.055 83.4533 317.175 82.6C316.322 81.7467 315.122 81.32 313.575 81.32C312.375 81.32 311.295 81.6267 310.335 82.24C309.375 82.8267 308.615 83.6533 308.055 84.72C307.522 85.76 307.255 86.9867 307.255 88.4C307.255 89.8667 307.682 91.0267 308.535 91.88C309.415 92.7333 310.629 93.16 312.175 93.16ZM316.415 98L317.295 93.72L318.655 87.32L319.495 80.92L322.015 68.32H328.255L322.335 98H316.415ZM328.151 98L332.431 76.48H338.631L334.351 98H328.151ZM336.591 73.48C335.497 73.48 334.617 73.1733 333.951 72.56C333.284 71.92 332.951 71.1467 332.951 70.24C332.951 69.1733 333.324 68.2933 334.071 67.6C334.844 66.88 335.844 66.52 337.071 66.52C338.164 66.52 339.044 66.8267 339.711 67.44C340.404 68.0267 340.751 68.76 340.751 69.64C340.751 70.7867 340.364 71.72 339.591 72.44C338.844 73.1333 337.844 73.48 336.591 73.48ZM347.983 98.32C346.089 98.32 344.303 98.1067 342.623 97.68C340.969 97.2533 339.689 96.72 338.783 96.08L341.183 91.56C342.116 92.1733 343.249 92.6667 344.583 93.04C345.943 93.4133 347.303 93.6 348.663 93.6C350.129 93.6 351.196 93.4133 351.863 93.04C352.529 92.6667 352.863 92.16 352.863 91.52C352.863 91.0133 352.583 90.64 352.023 90.4C351.463 90.1333 350.756 89.92 349.903 89.76C349.049 89.6 348.129 89.4133 347.143 89.2C346.183 88.9867 345.263 88.6933 344.383 88.32C343.529 87.92 342.823 87.36 342.263 86.64C341.729 85.8933 341.463 84.92 341.463 83.72C341.463 82.0933 341.916 80.72 342.823 79.6C343.756 78.48 345.036 77.6267 346.663 77.04C348.316 76.4533 350.183 76.16 352.263 76.16C353.756 76.16 355.209 76.32 356.623 76.64C358.036 76.96 359.236 77.4 360.223 77.96L357.983 82.52C356.969 81.88 355.903 81.4533 354.783 81.24C353.689 81 352.636 80.88 351.623 80.88C350.156 80.88 349.089 81.0933 348.423 81.52C347.783 81.92 347.463 82.4133 347.463 83C347.463 83.5067 347.729 83.9067 348.263 84.2C348.823 84.4667 349.529 84.6933 350.383 84.88C351.236 85.04 352.156 85.2267 353.143 85.44C354.129 85.6267 355.049 85.92 355.903 86.32C356.756 86.6933 357.449 87.24 357.983 87.96C358.543 88.6533 358.823 89.6 358.823 90.8C358.823 92.4267 358.343 93.8133 357.383 94.96C356.449 96.08 355.169 96.92 353.543 97.48C351.916 98.04 350.063 98.32 347.983 98.32ZM372.753 98.32C370.539 98.32 368.606 97.92 366.953 97.12C365.326 96.32 364.059 95.2 363.153 93.76C362.246 92.32 361.793 90.6267 361.793 88.68C361.793 86.28 362.353 84.1467 363.473 82.28C364.593 80.3867 366.139 78.8933 368.113 77.8C370.086 76.7067 372.353 76.16 374.913 76.16C377.206 76.16 379.193 76.64 380.873 77.6C382.553 78.5333 383.793 79.8667 384.593 81.6L379.313 84.24C378.859 83.2267 378.219 82.4933 377.393 82.04C376.593 81.56 375.633 81.32 374.513 81.32C373.286 81.32 372.193 81.6267 371.233 82.24C370.273 82.8267 369.513 83.6533 368.953 84.72C368.393 85.76 368.113 86.9733 368.113 88.36C368.113 89.8267 368.539 91 369.393 91.88C370.273 92.7333 371.513 93.16 373.113 93.16C374.206 93.16 375.206 92.9333 376.113 92.48C377.019 92 377.779 91.2667 378.393 90.28L382.993 93.16C381.979 94.7867 380.566 96.0533 378.753 96.96C376.966 97.8667 374.966 98.32 372.753 98.32ZM395.992 98.32C393.806 98.32 391.899 97.92 390.272 97.12C388.646 96.32 387.379 95.2 386.472 93.76C385.592 92.32 385.152 90.6267 385.152 88.68C385.152 86.28 385.712 84.1467 386.832 82.28C387.952 80.3867 389.486 78.8933 391.432 77.8C393.406 76.7067 395.646 76.16 398.152 76.16C400.366 76.16 402.272 76.56 403.872 77.36C405.499 78.16 406.752 79.28 407.632 80.72C408.539 82.1333 408.992 83.8267 408.992 85.8C408.992 88.1733 408.432 90.3067 407.312 92.2C406.192 94.0933 404.659 95.5867 402.712 96.68C400.766 97.7733 398.526 98.32 395.992 98.32ZM396.392 93.2C397.619 93.2 398.699 92.9067 399.632 92.32C400.592 91.7067 401.339 90.8667 401.872 89.8C402.406 88.7333 402.672 87.4933 402.672 86.08C402.672 84.64 402.246 83.48 401.392 82.6C400.539 81.72 399.339 81.28 397.792 81.28C396.566 81.28 395.472 81.5867 394.512 82.2C393.579 82.7867 392.832 83.6133 392.272 84.68C391.739 85.7467 391.472 86.9867 391.472 88.4C391.472 89.8667 391.899 91.04 392.752 91.92C393.606 92.7733 394.819 93.2 396.392 93.2ZM420.124 98.32C418.364 98.32 416.844 97.9467 415.564 97.2C414.284 96.4267 413.377 95.3067 412.844 93.84C412.311 92.3733 412.257 90.56 412.684 88.4L415.044 76.48H421.284L419.004 88C418.684 89.5733 418.804 90.7867 419.364 91.64C419.951 92.4933 420.977 92.92 422.444 92.92C423.991 92.92 425.284 92.4667 426.324 91.56C427.391 90.6533 428.097 89.2667 428.444 87.4L430.644 76.48H436.884L432.604 98H426.684L427.884 91.92L428.764 93.76C427.751 95.3333 426.484 96.4933 424.964 97.24C423.444 97.96 421.831 98.32 420.124 98.32ZM455.185 76.16C457.025 76.16 458.585 76.5467 459.865 77.32C461.145 78.0667 462.052 79.1733 462.585 80.64C463.118 82.1067 463.172 83.92 462.745 86.08L460.345 98H454.105L456.425 86.48C456.745 84.9067 456.612 83.6933 456.025 82.84C455.465 81.9867 454.425 81.56 452.905 81.56C451.332 81.56 450.012 82.0133 448.945 82.92C447.905 83.8267 447.185 85.2133 446.785 87.08L444.625 98H438.385L442.665 76.48H448.585L447.345 82.56L446.465 80.72C447.505 79.1467 448.785 78 450.305 77.28C451.852 76.5333 453.478 76.16 455.185 76.16ZM474.801 98.32C473.255 98.32 471.935 98.0133 470.841 97.4C469.748 96.76 468.961 95.8533 468.481 94.68C468.028 93.48 467.961 92.0667 468.281 90.44L472.001 71.72H478.241L474.521 90.4C474.361 91.3067 474.455 92.0267 474.801 92.56C475.148 93.0933 475.788 93.36 476.721 93.36C477.148 93.36 477.575 93.2933 478.001 93.16C478.455 93.0267 478.868 92.84 479.241 92.6L480.161 97.04C479.388 97.52 478.535 97.8533 477.601 98.04C476.668 98.2267 475.735 98.32 474.801 98.32ZM466.681 81.76L467.641 76.96H482.561L481.601 81.76H466.681ZM486.655 98.32C485.588 98.32 484.708 97.9867 484.015 97.32C483.321 96.6267 482.975 95.76 482.975 94.72C482.975 93.4667 483.375 92.4667 484.175 91.72C485.001 90.9467 485.988 90.56 487.135 90.56C488.201 90.56 489.068 90.8933 489.735 91.56C490.428 92.2267 490.775 93.0933 490.775 94.16C490.775 94.9867 490.575 95.72 490.175 96.36C489.801 96.9733 489.308 97.4533 488.695 97.8C488.081 98.1467 487.401 98.32 486.655 98.32Z" fill="#F1E8DF"/>
<path d="M220.883 135.08C220.072 135.08 219.342 134.899 218.691 134.536C218.051 134.163 217.544 133.656 217.171 133.016C216.798 132.365 216.611 131.624 216.611 130.792C216.611 129.949 216.798 129.208 217.171 128.568C217.544 127.928 218.051 127.427 218.691 127.064C219.331 126.701 220.062 126.52 220.883 126.52C221.715 126.52 222.451 126.701 223.091 127.064C223.742 127.427 224.248 127.928 224.611 128.568C224.984 129.208 225.171 129.949 225.171 130.792C225.171 131.624 224.984 132.365 224.611 133.016C224.248 133.656 223.742 134.163 223.091 134.536C222.44 134.899 221.704 135.08 220.883 135.08ZM220.883 134.072C221.491 134.072 222.03 133.939 222.499 133.672C222.968 133.395 223.336 133.011 223.603 132.52C223.88 132.019 224.019 131.443 224.019 130.792C224.019 130.131 223.88 129.555 223.603 129.064C223.336 128.573 222.968 128.195 222.499 127.928C222.03 127.651 221.496 127.512 220.899 127.512C220.302 127.512 219.768 127.651 219.299 127.928C218.83 128.195 218.456 128.573 218.179 129.064C217.902 129.555 217.763 130.131 217.763 130.792C217.763 131.443 217.902 132.019 218.179 132.52C218.456 133.011 218.83 133.395 219.299 133.672C219.768 133.939 220.296 134.072 220.883 134.072ZM227.49 135V126.6H228.578V128.888L228.466 128.488C228.701 127.848 229.096 127.363 229.65 127.032C230.205 126.691 230.893 126.52 231.714 126.52V127.624C231.672 127.624 231.629 127.624 231.586 127.624C231.544 127.613 231.501 127.608 231.458 127.608C230.573 127.608 229.88 127.88 229.378 128.424C228.877 128.957 228.626 129.72 228.626 130.712V135H227.49ZM238.1 135V126.6H239.188V128.888L239.076 128.488C239.31 127.848 239.705 127.363 240.26 127.032C240.814 126.691 241.502 126.52 242.324 126.52V127.624C242.281 127.624 242.238 127.624 242.196 127.624C242.153 127.613 242.11 127.608 242.068 127.608C241.182 127.608 240.489 127.88 239.988 128.424C239.486 128.957 239.236 129.72 239.236 130.712V135H238.1ZM247.886 135.08C247.012 135.08 246.244 134.899 245.582 134.536C244.921 134.163 244.404 133.656 244.03 133.016C243.657 132.365 243.47 131.624 243.47 130.792C243.47 129.96 243.646 129.224 243.998 128.584C244.361 127.944 244.852 127.443 245.47 127.08C246.1 126.707 246.804 126.52 247.582 126.52C248.372 126.52 249.07 126.701 249.678 127.064C250.297 127.416 250.782 127.917 251.134 128.568C251.486 129.208 251.662 129.949 251.662 130.792C251.662 130.845 251.657 130.904 251.646 130.968C251.646 131.021 251.646 131.08 251.646 131.144H244.334V130.296H251.038L250.59 130.632C250.59 130.024 250.457 129.485 250.19 129.016C249.934 128.536 249.582 128.163 249.134 127.896C248.686 127.629 248.169 127.496 247.582 127.496C247.006 127.496 246.489 127.629 246.03 127.896C245.572 128.163 245.214 128.536 244.958 129.016C244.702 129.496 244.574 130.045 244.574 130.664V130.84C244.574 131.48 244.713 132.045 244.99 132.536C245.278 133.016 245.673 133.395 246.174 133.672C246.686 133.939 247.268 134.072 247.918 134.072C248.43 134.072 248.905 133.981 249.342 133.8C249.79 133.619 250.174 133.341 250.494 132.968L251.134 133.704C250.761 134.152 250.292 134.493 249.726 134.728C249.172 134.963 248.558 135.08 247.886 135.08ZM257.319 135.08C256.519 135.08 255.799 134.899 255.159 134.536C254.529 134.173 254.033 133.672 253.671 133.032C253.308 132.392 253.127 131.645 253.127 130.792C253.127 129.949 253.308 129.208 253.671 128.568C254.033 127.917 254.529 127.416 255.159 127.064C255.799 126.701 256.519 126.52 257.319 126.52C258.065 126.52 258.727 126.685 259.303 127.016C259.889 127.347 260.353 127.832 260.695 128.472C261.036 129.101 261.207 129.875 261.207 130.792C261.207 131.709 261.031 132.488 260.679 133.128C260.337 133.757 259.873 134.243 259.287 134.584C258.711 134.915 258.055 135.08 257.319 135.08ZM257.399 134.072C257.996 134.072 258.529 133.939 258.999 133.672C259.479 133.395 259.852 133.011 260.119 132.52C260.396 132.019 260.535 131.443 260.535 130.792C260.535 130.141 260.396 129.571 260.119 129.08C259.852 128.589 259.479 128.205 258.999 127.928C258.529 127.651 257.996 127.512 257.399 127.512C256.812 127.512 256.284 127.651 255.815 127.928C255.345 128.205 254.972 128.589 254.695 129.08C254.417 129.571 254.279 130.141 254.279 130.792C254.279 131.443 254.417 132.019 254.695 132.52C254.972 133.011 255.345 133.395 255.815 133.672C256.284 133.939 256.812 134.072 257.399 134.072ZM260.519 138.104V132.504L260.679 130.808L260.567 129.128V126.6H261.655V138.104H260.519ZM268.29 135.08C267.576 135.08 266.952 134.947 266.418 134.68C265.885 134.413 265.469 134.013 265.17 133.48C264.882 132.947 264.738 132.28 264.738 131.48V126.6H265.874V131.352C265.874 132.248 266.093 132.925 266.53 133.384C266.978 133.832 267.602 134.056 268.402 134.056C268.989 134.056 269.496 133.939 269.922 133.704C270.36 133.459 270.69 133.107 270.914 132.648C271.149 132.189 271.266 131.64 271.266 131V126.6H272.402V135H271.314V132.696L271.49 133.112C271.224 133.731 270.808 134.216 270.242 134.568C269.688 134.909 269.037 135.08 268.29 135.08ZM279.136 135.08C278.262 135.08 277.494 134.899 276.832 134.536C276.171 134.163 275.654 133.656 275.28 133.016C274.907 132.365 274.72 131.624 274.72 130.792C274.72 129.96 274.896 129.224 275.248 128.584C275.611 127.944 276.102 127.443 276.72 127.08C277.35 126.707 278.054 126.52 278.832 126.52C279.622 126.52 280.32 126.701 280.928 127.064C281.547 127.416 282.032 127.917 282.384 128.568C282.736 129.208 282.912 129.949 282.912 130.792C282.912 130.845 282.907 130.904 282.896 130.968C282.896 131.021 282.896 131.08 282.896 131.144H275.584V130.296H282.288L281.84 130.632C281.84 130.024 281.707 129.485 281.44 129.016C281.184 128.536 280.832 128.163 280.384 127.896C279.936 127.629 279.419 127.496 278.832 127.496C278.256 127.496 277.739 127.629 277.28 127.896C276.822 128.163 276.464 128.536 276.208 129.016C275.952 129.496 275.824 130.045 275.824 130.664V130.84C275.824 131.48 275.963 132.045 276.24 132.536C276.528 133.016 276.923 133.395 277.424 133.672C277.936 133.939 278.518 134.072 279.168 134.072C279.68 134.072 280.155 133.981 280.592 133.8C281.04 133.619 281.424 133.341 281.744 132.968L282.384 133.704C282.011 134.152 281.542 134.493 280.976 134.728C280.422 134.963 279.808 135.08 279.136 135.08ZM287.481 135.08C286.787 135.08 286.131 134.984 285.513 134.792C284.894 134.589 284.409 134.339 284.057 134.04L284.569 133.144C284.91 133.4 285.347 133.624 285.881 133.816C286.414 133.997 286.974 134.088 287.561 134.088C288.361 134.088 288.937 133.965 289.289 133.72C289.641 133.464 289.817 133.128 289.817 132.712C289.817 132.403 289.715 132.163 289.513 131.992C289.321 131.811 289.065 131.677 288.745 131.592C288.425 131.496 288.067 131.416 287.673 131.352C287.278 131.288 286.883 131.213 286.489 131.128C286.105 131.043 285.753 130.92 285.433 130.76C285.113 130.589 284.851 130.36 284.649 130.072C284.457 129.784 284.361 129.4 284.361 128.92C284.361 128.461 284.489 128.051 284.745 127.688C285.001 127.325 285.374 127.043 285.865 126.84C286.366 126.627 286.974 126.52 287.689 126.52C288.233 126.52 288.777 126.595 289.321 126.744C289.865 126.883 290.313 127.069 290.665 127.304L290.169 128.216C289.795 127.96 289.395 127.779 288.969 127.672C288.542 127.555 288.115 127.496 287.689 127.496C286.931 127.496 286.371 127.629 286.009 127.896C285.657 128.152 285.481 128.483 285.481 128.888C285.481 129.208 285.577 129.459 285.769 129.64C285.971 129.821 286.233 129.965 286.553 130.072C286.883 130.168 287.241 130.248 287.625 130.312C288.019 130.376 288.409 130.456 288.793 130.552C289.187 130.637 289.545 130.76 289.865 130.92C290.195 131.069 290.457 131.288 290.649 131.576C290.851 131.853 290.953 132.221 290.953 132.68C290.953 133.171 290.814 133.597 290.537 133.96C290.27 134.312 289.875 134.589 289.353 134.792C288.841 134.984 288.217 135.08 287.481 135.08ZM295.693 135.08C294.904 135.08 294.296 134.867 293.869 134.44C293.442 134.013 293.229 133.411 293.229 132.632V124.744H294.365V132.568C294.365 133.059 294.488 133.437 294.733 133.704C294.989 133.971 295.352 134.104 295.821 134.104C296.322 134.104 296.738 133.96 297.069 133.672L297.469 134.488C297.245 134.691 296.973 134.84 296.653 134.936C296.344 135.032 296.024 135.08 295.693 135.08ZM291.725 127.544V126.6H296.925V127.544H291.725ZM308.013 126.52C308.695 126.52 309.293 126.653 309.805 126.92C310.327 127.176 310.733 127.571 311.021 128.104C311.319 128.637 311.469 129.309 311.469 130.12V135H310.333V130.232C310.333 129.347 310.109 128.68 309.661 128.232C309.223 127.773 308.605 127.544 307.805 127.544C307.207 127.544 306.685 127.667 306.237 127.912C305.799 128.147 305.458 128.493 305.213 128.952C304.978 129.4 304.861 129.944 304.861 130.584V135H303.725V123.128H304.861V128.904L304.637 128.472C304.903 127.864 305.33 127.389 305.917 127.048C306.503 126.696 307.202 126.52 308.013 126.52ZM319.801 135V133.144L319.753 132.84V129.736C319.753 129.021 319.55 128.472 319.145 128.088C318.75 127.704 318.158 127.512 317.369 127.512C316.825 127.512 316.308 127.603 315.817 127.784C315.326 127.965 314.91 128.205 314.569 128.504L314.057 127.656C314.484 127.293 314.996 127.016 315.593 126.824C316.19 126.621 316.82 126.52 317.481 126.52C318.569 126.52 319.406 126.792 319.993 127.336C320.59 127.869 320.889 128.685 320.889 129.784V135H319.801ZM316.905 135.08C316.276 135.08 315.726 134.979 315.257 134.776C314.798 134.563 314.446 134.275 314.201 133.912C313.956 133.539 313.833 133.112 313.833 132.632C313.833 132.195 313.934 131.8 314.137 131.448C314.35 131.085 314.692 130.797 315.161 130.584C315.641 130.36 316.281 130.248 317.081 130.248H319.977V131.096H317.113C316.302 131.096 315.737 131.24 315.417 131.528C315.108 131.816 314.953 132.173 314.953 132.6C314.953 133.08 315.14 133.464 315.513 133.752C315.886 134.04 316.409 134.184 317.081 134.184C317.721 134.184 318.27 134.04 318.729 133.752C319.198 133.453 319.54 133.027 319.753 132.472L320.009 133.256C319.796 133.811 319.422 134.253 318.889 134.584C318.366 134.915 317.705 135.08 316.905 135.08ZM323.975 135V123.128H325.111V135H323.975ZM328.464 135V125.544C328.464 124.797 328.682 124.195 329.12 123.736C329.557 123.277 330.186 123.048 331.008 123.048C331.328 123.048 331.637 123.091 331.936 123.176C332.234 123.261 332.485 123.395 332.688 123.576L332.304 124.424C332.144 124.285 331.957 124.184 331.744 124.12C331.53 124.045 331.301 124.008 331.056 124.008C330.576 124.008 330.208 124.141 329.952 124.408C329.696 124.675 329.568 125.069 329.568 125.592V126.872L329.6 127.4V135H328.464ZM326.96 127.544V126.6H332.16V127.544H326.96ZM342.217 135.08C341.481 135.08 340.82 134.915 340.233 134.584C339.646 134.243 339.182 133.752 338.841 133.112C338.5 132.472 338.329 131.699 338.329 130.792C338.329 129.875 338.5 129.101 338.841 128.472C339.193 127.832 339.662 127.347 340.249 127.016C340.836 126.685 341.492 126.52 342.217 126.52C343.017 126.52 343.732 126.701 344.361 127.064C345.001 127.416 345.502 127.912 345.865 128.552C346.228 129.192 346.409 129.939 346.409 130.792C346.409 131.635 346.228 132.381 345.865 133.032C345.502 133.672 345.001 134.173 344.361 134.536C343.732 134.899 343.017 135.08 342.217 135.08ZM337.881 135V123.128H339.017V129.08L338.857 130.776L338.969 132.472V135H337.881ZM342.137 134.072C342.734 134.072 343.268 133.939 343.737 133.672C344.206 133.395 344.58 133.011 344.857 132.52C345.134 132.019 345.273 131.443 345.273 130.792C345.273 130.131 345.134 129.555 344.857 129.064C344.58 128.573 344.206 128.195 343.737 127.928C343.268 127.651 342.734 127.512 342.137 127.512C341.54 127.512 341.001 127.651 340.521 127.928C340.052 128.195 339.678 128.573 339.401 129.064C339.134 129.555 339.001 130.131 339.001 130.792C339.001 131.443 339.134 132.019 339.401 132.52C339.678 133.011 340.052 133.395 340.521 133.672C341.001 133.939 341.54 134.072 342.137 134.072ZM352.149 135.08C351.338 135.08 350.607 134.899 349.957 134.536C349.317 134.163 348.81 133.656 348.437 133.016C348.063 132.365 347.877 131.624 347.877 130.792C347.877 129.949 348.063 129.208 348.437 128.568C348.81 127.928 349.317 127.427 349.957 127.064C350.597 126.701 351.327 126.52 352.149 126.52C352.981 126.52 353.717 126.701 354.357 127.064C355.007 127.427 355.514 127.928 355.877 128.568C356.25 129.208 356.437 129.949 356.437 130.792C356.437 131.624 356.25 132.365 355.877 133.016C355.514 133.656 355.007 134.163 354.357 134.536C353.706 134.899 352.97 135.08 352.149 135.08ZM352.149 134.072C352.757 134.072 353.295 133.939 353.765 133.672C354.234 133.395 354.602 133.011 354.869 132.52C355.146 132.019 355.285 131.443 355.285 130.792C355.285 130.131 355.146 129.555 354.869 129.064C354.602 128.573 354.234 128.195 353.765 127.928C353.295 127.651 352.762 127.512 352.165 127.512C351.567 127.512 351.034 127.651 350.565 127.928C350.095 128.195 349.722 128.573 349.445 129.064C349.167 129.555 349.029 130.131 349.029 130.792C349.029 131.443 349.167 132.019 349.445 132.52C349.722 133.011 350.095 133.395 350.565 133.672C351.034 133.939 351.562 134.072 352.149 134.072ZM363.973 135V133.144L363.925 132.84V129.736C363.925 129.021 363.722 128.472 363.317 128.088C362.922 127.704 362.33 127.512 361.541 127.512C360.997 127.512 360.48 127.603 359.989 127.784C359.498 127.965 359.082 128.205 358.741 128.504L358.229 127.656C358.656 127.293 359.168 127.016 359.765 126.824C360.362 126.621 360.992 126.52 361.653 126.52C362.741 126.52 363.578 126.792 364.165 127.336C364.762 127.869 365.061 128.685 365.061 129.784V135H363.973ZM361.077 135.08C360.448 135.08 359.898 134.979 359.429 134.776C358.97 134.563 358.618 134.275 358.373 133.912C358.128 133.539 358.005 133.112 358.005 132.632C358.005 132.195 358.106 131.8 358.309 131.448C358.522 131.085 358.864 130.797 359.333 130.584C359.813 130.36 360.453 130.248 361.253 130.248H364.149V131.096H361.285C360.474 131.096 359.909 131.24 359.589 131.528C359.28 131.816 359.125 132.173 359.125 132.6C359.125 133.08 359.312 133.464 359.685 133.752C360.058 134.04 360.581 134.184 361.253 134.184C361.893 134.184 362.442 134.04 362.901 133.752C363.37 133.453 363.712 133.027 363.925 132.472L364.181 133.256C363.968 133.811 363.594 134.253 363.061 134.584C362.538 134.915 361.877 135.08 361.077 135.08ZM368.147 135V126.6H369.235V128.888L369.123 128.488C369.357 127.848 369.752 127.363 370.307 127.032C370.861 126.691 371.549 126.52 372.371 126.52V127.624C372.328 127.624 372.285 127.624 372.243 127.624C372.2 127.613 372.157 127.608 372.115 127.608C371.229 127.608 370.536 127.88 370.035 128.424C369.533 128.957 369.283 129.72 369.283 130.712V135H368.147ZM377.709 135.08C376.909 135.08 376.189 134.899 375.549 134.536C374.92 134.173 374.424 133.672 374.061 133.032C373.699 132.381 373.517 131.635 373.517 130.792C373.517 129.939 373.699 129.192 374.061 128.552C374.424 127.912 374.92 127.416 375.549 127.064C376.189 126.701 376.909 126.52 377.709 126.52C378.445 126.52 379.101 126.685 379.677 127.016C380.264 127.347 380.728 127.832 381.069 128.472C381.421 129.101 381.597 129.875 381.597 130.792C381.597 131.699 381.427 132.472 381.085 133.112C380.744 133.752 380.28 134.243 379.693 134.584C379.117 134.915 378.456 135.08 377.709 135.08ZM377.789 134.072C378.387 134.072 378.92 133.939 379.389 133.672C379.869 133.395 380.243 133.011 380.509 132.52C380.787 132.019 380.925 131.443 380.925 130.792C380.925 130.131 380.787 129.555 380.509 129.064C380.243 128.573 379.869 128.195 379.389 127.928C378.92 127.651 378.387 127.512 377.789 127.512C377.203 127.512 376.675 127.651 376.205 127.928C375.736 128.195 375.363 128.573 375.085 129.064C374.808 129.555 374.669 130.131 374.669 130.792C374.669 131.443 374.808 132.019 375.085 132.52C375.363 133.011 375.736 133.395 376.205 133.672C376.675 133.939 377.203 134.072 377.789 134.072ZM380.957 135V132.472L381.069 130.776L380.909 129.08V123.128H382.045V135H380.957ZM392.821 135.08C392.01 135.08 391.279 134.899 390.629 134.536C389.989 134.163 389.482 133.656 389.109 133.016C388.735 132.365 388.549 131.624 388.549 130.792C388.549 129.949 388.735 129.208 389.109 128.568C389.482 127.928 389.989 127.427 390.629 127.064C391.269 126.701 391.999 126.52 392.821 126.52C393.653 126.52 394.389 126.701 395.029 127.064C395.679 127.427 396.186 127.928 396.549 128.568C396.922 129.208 397.109 129.949 397.109 130.792C397.109 131.624 396.922 132.365 396.549 133.016C396.186 133.656 395.679 134.163 395.029 134.536C394.378 134.899 393.642 135.08 392.821 135.08ZM392.821 134.072C393.429 134.072 393.967 133.939 394.437 133.672C394.906 133.395 395.274 133.011 395.541 132.52C395.818 132.019 395.957 131.443 395.957 130.792C395.957 130.131 395.818 129.555 395.541 129.064C395.274 128.573 394.906 128.195 394.437 127.928C393.967 127.651 393.434 127.512 392.837 127.512C392.239 127.512 391.706 127.651 391.237 127.928C390.767 128.195 390.394 128.573 390.117 129.064C389.839 129.555 389.701 130.131 389.701 130.792C389.701 131.443 389.839 132.019 390.117 132.52C390.394 133.011 390.767 133.395 391.237 133.672C391.706 133.939 392.234 134.072 392.821 134.072ZM399.428 135V126.6H400.516V128.888L400.404 128.488C400.638 127.848 401.033 127.363 401.588 127.032C402.142 126.691 402.83 126.52 403.652 126.52V127.624C403.609 127.624 403.566 127.624 403.524 127.624C403.481 127.613 403.438 127.608 403.396 127.608C402.51 127.608 401.817 127.88 401.316 128.424C400.814 128.957 400.564 129.72 400.564 130.712V135H399.428ZM410.229 135V125.544C410.229 124.797 410.448 124.195 410.885 123.736C411.322 123.277 411.952 123.048 412.773 123.048C413.093 123.048 413.402 123.091 413.701 123.176C414 123.261 414.25 123.395 414.453 123.576L414.069 124.424C413.909 124.285 413.722 124.184 413.509 124.12C413.296 124.045 413.066 124.008 412.821 124.008C412.341 124.008 411.973 124.141 411.717 124.408C411.461 124.675 411.333 125.069 411.333 125.592V126.872L411.365 127.4V135H410.229ZM408.725 127.544V126.6H413.925V127.544H408.725ZM418.931 135.08C418.216 135.08 417.592 134.947 417.059 134.68C416.526 134.413 416.11 134.013 415.811 133.48C415.523 132.947 415.379 132.28 415.379 131.48V126.6H416.515V131.352C416.515 132.248 416.734 132.925 417.171 133.384C417.619 133.832 418.243 134.056 419.043 134.056C419.63 134.056 420.136 133.939 420.563 133.704C421 133.459 421.331 133.107 421.555 132.648C421.79 132.189 421.907 131.64 421.907 131V126.6H423.043V135H421.955V132.696L422.131 133.112C421.864 133.731 421.448 134.216 420.883 134.568C420.328 134.909 419.678 135.08 418.931 135.08ZM426.209 135V123.128H427.345V135H426.209ZM430.506 135V123.128H431.642V135H430.506ZM443.326 135.08C442.59 135.08 441.929 134.915 441.342 134.584C440.756 134.243 440.292 133.752 439.95 133.112C439.609 132.472 439.438 131.699 439.438 130.792C439.438 129.875 439.609 129.101 439.95 128.472C440.302 127.832 440.772 127.347 441.358 127.016C441.945 126.685 442.601 126.52 443.326 126.52C444.126 126.52 444.841 126.701 445.47 127.064C446.11 127.416 446.612 127.912 446.974 128.552C447.337 129.192 447.518 129.939 447.518 130.792C447.518 131.635 447.337 132.381 446.974 133.032C446.612 133.672 446.11 134.173 445.47 134.536C444.841 134.899 444.126 135.08 443.326 135.08ZM438.99 135V123.128H440.126V129.08L439.966 130.776L440.078 132.472V135H438.99ZM443.246 134.072C443.844 134.072 444.377 133.939 444.846 133.672C445.316 133.395 445.689 133.011 445.966 132.52C446.244 132.019 446.382 131.443 446.382 130.792C446.382 130.131 446.244 129.555 445.966 129.064C445.689 128.573 445.316 128.195 444.846 127.928C444.377 127.651 443.844 127.512 443.246 127.512C442.649 127.512 442.11 127.651 441.63 127.928C441.161 128.195 440.788 128.573 440.51 129.064C440.244 129.555 440.11 130.131 440.11 130.792C440.11 131.443 440.244 132.019 440.51 132.52C440.788 133.011 441.161 133.395 441.63 133.672C442.11 133.939 442.649 134.072 443.246 134.072ZM453.258 135.08C452.447 135.08 451.717 134.899 451.066 134.536C450.426 134.163 449.919 133.656 449.546 133.016C449.173 132.365 448.986 131.624 448.986 130.792C448.986 129.949 449.173 129.208 449.546 128.568C449.919 127.928 450.426 127.427 451.066 127.064C451.706 126.701 452.437 126.52 453.258 126.52C454.09 126.52 454.826 126.701 455.466 127.064C456.117 127.427 456.623 127.928 456.986 128.568C457.359 129.208 457.546 129.949 457.546 130.792C457.546 131.624 457.359 132.365 456.986 133.016C456.623 133.656 456.117 134.163 455.466 134.536C454.815 134.899 454.079 135.08 453.258 135.08ZM453.258 134.072C453.866 134.072 454.405 133.939 454.874 133.672C455.343 133.395 455.711 133.011 455.978 132.52C456.255 132.019 456.394 131.443 456.394 130.792C456.394 130.131 456.255 129.555 455.978 129.064C455.711 128.573 455.343 128.195 454.874 127.928C454.405 127.651 453.871 127.512 453.274 127.512C452.677 127.512 452.143 127.651 451.674 127.928C451.205 128.195 450.831 128.573 450.554 129.064C450.277 129.555 450.138 130.131 450.138 130.792C450.138 131.443 450.277 132.019 450.554 132.52C450.831 133.011 451.205 133.395 451.674 133.672C452.143 133.939 452.671 134.072 453.258 134.072ZM465.082 135V133.144L465.034 132.84V129.736C465.034 129.021 464.832 128.472 464.426 128.088C464.032 127.704 463.44 127.512 462.65 127.512C462.106 127.512 461.589 127.603 461.098 127.784C460.608 127.965 460.192 128.205 459.85 128.504L459.338 127.656C459.765 127.293 460.277 127.016 460.874 126.824C461.472 126.621 462.101 126.52 462.762 126.52C463.85 126.52 464.688 126.792 465.274 127.336C465.872 127.869 466.17 128.685 466.17 129.784V135H465.082ZM462.186 135.08C461.557 135.08 461.008 134.979 460.538 134.776C460.08 134.563 459.728 134.275 459.482 133.912C459.237 133.539 459.114 133.112 459.114 132.632C459.114 132.195 459.216 131.8 459.418 131.448C459.632 131.085 459.973 130.797 460.442 130.584C460.922 130.36 461.562 130.248 462.362 130.248H465.258V131.096H462.394C461.584 131.096 461.018 131.24 460.698 131.528C460.389 131.816 460.234 132.173 460.234 132.6C460.234 133.08 460.421 133.464 460.794 133.752C461.168 134.04 461.69 134.184 462.362 134.184C463.002 134.184 463.552 134.04 464.01 133.752C464.48 133.453 464.821 133.027 465.034 132.472L465.29 133.256C465.077 133.811 464.704 134.253 464.17 134.584C463.648 134.915 462.986 135.08 462.186 135.08ZM469.256 135V126.6H470.344V128.888L470.232 128.488C470.467 127.848 470.861 127.363 471.416 127.032C471.971 126.691 472.659 126.52 473.48 126.52V127.624C473.437 127.624 473.395 127.624 473.352 127.624C473.309 127.613 473.267 127.608 473.224 127.608C472.339 127.608 471.645 127.88 471.144 128.424C470.643 128.957 470.392 129.72 470.392 130.712V135H469.256ZM478.819 135.08C478.019 135.08 477.299 134.899 476.659 134.536C476.029 134.173 475.533 133.672 475.171 133.032C474.808 132.381 474.627 131.635 474.627 130.792C474.627 129.939 474.808 129.192 475.171 128.552C475.533 127.912 476.029 127.416 476.659 127.064C477.299 126.701 478.019 126.52 478.819 126.52C479.555 126.52 480.211 126.685 480.787 127.016C481.373 127.347 481.837 127.832 482.179 128.472C482.531 129.101 482.707 129.875 482.707 130.792C482.707 131.699 482.536 132.472 482.195 133.112C481.853 133.752 481.389 134.243 480.803 134.584C480.227 134.915 479.565 135.08 478.819 135.08ZM478.899 134.072C479.496 134.072 480.029 133.939 480.499 133.672C480.979 133.395 481.352 133.011 481.619 132.52C481.896 132.019 482.035 131.443 482.035 130.792C482.035 130.131 481.896 129.555 481.619 129.064C481.352 128.573 480.979 128.195 480.499 127.928C480.029 127.651 479.496 127.512 478.899 127.512C478.312 127.512 477.784 127.651 477.315 127.928C476.845 128.195 476.472 128.573 476.195 129.064C475.917 129.555 475.779 130.131 475.779 130.792C475.779 131.443 475.917 132.019 476.195 132.52C476.472 133.011 476.845 133.395 477.315 133.672C477.784 133.939 478.312 134.072 478.899 134.072ZM482.067 135V132.472L482.179 130.776L482.019 129.08V123.128H483.155V135H482.067ZM486.43 135.08C486.196 135.08 485.993 134.995 485.822 134.824C485.662 134.653 485.582 134.445 485.582 134.2C485.582 133.944 485.662 133.736 485.822 133.576C485.993 133.416 486.196 133.336 486.43 133.336C486.665 133.336 486.862 133.416 487.022 133.576C487.193 133.736 487.278 133.944 487.278 134.2C487.278 134.445 487.193 134.653 487.022 134.824C486.862 134.995 486.665 135.08 486.43 135.08Z" fill="#E3D0BF"/>
</svg>
