<svg width="78" height="79" viewBox="0 0 78 79" fill="none" xmlns="http://www.w3.org/2000/svg">
<rect x="2" y="2.23047" width="74" height="74" rx="37" fill="#B98A5E"/>
<rect x="2" y="2.23047" width="74" height="74" rx="37" stroke="#F8F3EF" stroke-width="4"/>
<path d="M32.7383 31.4617L22.105 33.0034L21.9166 33.0417C21.6315 33.1174 21.3716 33.2674 21.1635 33.4764C20.9553 33.6854 20.8063 33.9459 20.7317 34.2313C20.6572 34.5167 20.6597 34.8167 20.739 35.1008C20.8184 35.3849 20.9717 35.6429 21.1833 35.8484L28.8866 43.3467L27.07 53.9384L27.0483 54.1217C27.0309 54.4166 27.0921 54.7108 27.2257 54.9742C27.3594 55.2377 27.5606 55.4608 27.8089 55.6209C28.0571 55.781 28.3435 55.8722 28.6386 55.8852C28.9337 55.8983 29.2269 55.8326 29.4883 55.695L38.9983 50.695L48.4866 55.695L48.6533 55.7717C48.9284 55.8801 49.2274 55.9133 49.5196 55.868C49.8118 55.8227 50.0866 55.7004 50.316 55.5138C50.5453 55.3272 50.7209 55.083 50.8247 54.8061C50.9285 54.5293 50.9568 54.2298 50.9066 53.9384L49.0883 43.3467L56.795 35.8467L56.925 35.7051C57.1107 35.4763 57.2324 35.2025 57.2778 34.9114C57.3232 34.6203 57.2907 34.3223 57.1835 34.0479C57.0762 33.7735 56.8982 33.5324 56.6675 33.3492C56.4367 33.166 56.1616 33.0473 55.87 33.0051L45.2366 31.4617L40.4833 21.8284C40.3458 21.5493 40.1328 21.3142 39.8686 21.1499C39.6044 20.9855 39.2995 20.8984 38.9883 20.8984C38.6772 20.8984 38.3722 20.9855 38.108 21.1499C37.8438 21.3142 37.6309 21.5493 37.4933 21.8284L32.7383 31.4617Z" fill="white"/>
</svg>
