<svg width="64" height="64" viewBox="0 0 64 64" fill="none" xmlns="http://www.w3.org/2000/svg">
<path d="M13.3333 45.3333C13.3333 46.7478 13.8952 48.1044 14.8954 49.1046C15.8956 50.1048 17.2522 50.6667 18.6667 50.6667C20.0812 50.6667 21.4377 50.1048 22.4379 49.1046C23.4381 48.1044 24 46.7478 24 45.3333M13.3333 45.3333C13.3333 43.9188 13.8952 42.5623 14.8954 41.5621C15.8956 40.5619 17.2522 40 18.6667 40C20.0812 40 21.4377 40.5619 22.4379 41.5621C23.4381 42.5623 24 43.9188 24 45.3333M13.3333 45.3333H8V29.3333M24 45.3333H40M40 45.3333C40 46.7478 40.5619 48.1044 41.5621 49.1046C42.5623 50.1048 43.9188 50.6667 45.3333 50.6667C46.7478 50.6667 48.1044 50.1048 49.1046 49.1046C50.1048 48.1044 50.6667 46.7478 50.6667 45.3333M40 45.3333C40 43.9188 40.5619 42.5623 41.5621 41.5621C42.5623 40.5619 43.9188 40 45.3333 40C46.7478 40 48.1044 40.5619 49.1046 41.5621C50.1048 42.5623 50.6667 43.9188 50.6667 45.3333M50.6667 45.3333H56V34.6667C56 33.2522 55.4381 31.8956 54.4379 30.8954C53.4377 29.8952 52.0812 29.3333 50.6667 29.3333H48M8 29.3333L13.3333 16H37.3333L48 29.3333M8 29.3333H48M32 29.3333V16" stroke="#D4E0E1" stroke-width="1.5" stroke-linecap="round" stroke-linejoin="round"/>
</svg>
