<svg width="32" height="32" viewBox="0 0 32 32" fill="none" xmlns="http://www.w3.org/2000/svg">
<path d="M12 14.6663C12 15.7271 12.4214 16.7446 13.1716 17.4947C13.9217 18.2449 14.9391 18.6663 16 18.6663C17.0608 18.6663 18.0783 18.2449 18.8284 17.4947C19.5786 16.7446 20 15.7271 20 14.6663C20 13.6054 19.5786 12.588 18.8284 11.8379C18.0783 11.0877 17.0608 10.6663 16 10.6663C14.9391 10.6663 13.9217 11.0877 13.1716 11.8379C12.4214 12.588 12 13.6054 12 14.6663Z" stroke="#451522" stroke-width="2" stroke-linecap="round" stroke-linejoin="round"/>
<path d="M23.5427 22.2089L17.8853 27.8663C17.3853 28.3658 16.7074 28.6464 16.0007 28.6464C15.2939 28.6464 14.616 28.3658 14.116 27.8663L8.45732 22.2089C6.96561 20.7172 5.94977 18.8165 5.53823 16.7474C5.1267 14.6783 5.33797 12.5336 6.14532 10.5846C6.95267 8.63554 8.31985 6.96966 10.074 5.79762C11.8281 4.62558 13.8903 4 16 4C18.1096 4 20.1719 4.62558 21.926 5.79762C23.6801 6.96966 25.0473 8.63554 25.8546 10.5846C26.662 12.5336 26.8733 14.6783 26.4617 16.7474C26.0502 18.8165 25.0344 20.7172 23.5427 22.2089Z" stroke="#451522" stroke-width="2" stroke-linecap="round" stroke-linejoin="round"/>
</svg>
