<svg width="32" height="32" viewBox="0 0 32 32" fill="none" xmlns="http://www.w3.org/2000/svg">
<path d="M2.66669 26.6667C2.96958 27.0887 3.37065 27.4306 3.83525 27.6629C4.29986 27.8952 4.81403 28.0109 5.33335 28C5.85268 28.0109 6.36685 27.8952 6.83145 27.6629C7.29606 27.4306 7.69713 27.0887 8.00002 26.6667C8.30291 26.2447 8.70398 25.9028 9.16859 25.6705C9.63319 25.4382 10.1474 25.3225 10.6667 25.3333C11.186 25.3225 11.7002 25.4382 12.1648 25.6705C12.6294 25.9028 13.0305 26.2447 13.3334 26.6667C13.6362 27.0887 14.0373 27.4306 14.5019 27.6629C14.9665 27.8952 15.4807 28.0109 16 28C16.5193 28.0109 17.0335 27.8952 17.4981 27.6629C17.9627 27.4306 18.3638 27.0887 18.6667 26.6667C18.9696 26.2447 19.3706 25.9028 19.8353 25.6705C20.2999 25.4382 20.814 25.3225 21.3334 25.3333C21.8527 25.3225 22.3669 25.4382 22.8315 25.6705C23.2961 25.9028 23.6971 26.2447 24 26.6667C24.3029 27.0887 24.704 27.4306 25.1686 27.6629C25.6332 27.8952 26.1474 28.0109 26.6667 28C27.186 28.0109 27.7002 27.8952 28.1648 27.6629C28.6294 27.4306 29.0305 27.0887 29.3334 26.6667M5.33335 24L4.00002 17.3333H28L25.3334 22.6667M6.66669 17.3333V9.33333H17.3334L22.6667 17.3333M9.33335 9.33333V4H8.00002" stroke="#451522" stroke-width="1.5" stroke-linecap="round" stroke-linejoin="round"/>
</svg>
